<svg width="55" height="55" viewBox="0 0 55 55" fill="none" xmlns="http://www.w3.org/2000/svg">
<path d="M27.4999 0C34.7908 0.00815218 41.7808 2.90808 46.9363 8.06357C52.0918 13.2191 54.9917 20.209 54.9999 27.5C54.9877 34.7897 52.0864 41.7773 46.9318 46.9319C41.7772 52.0865 34.7896 54.9878 27.4999 55C20.2064 55 13.2117 52.1027 8.05444 46.9454C2.89719 41.7882 -0.00012207 34.7935 -0.00012207 27.5C-0.00012207 20.2065 2.89719 13.2118 8.05444 8.05456C13.2117 2.89731 20.2064 0 27.4999 0ZM10.7733 43.3686C12.3177 40.2534 14.702 37.6318 17.6571 35.7996C20.6123 33.9674 24.0206 32.9975 27.4976 32.9994C30.9747 33.0012 34.382 33.9747 37.3352 35.81C40.2884 37.6453 42.6699 40.2694 44.2111 43.3862C48.3231 39.1215 50.6143 33.4242 50.5999 27.5C50.5999 21.3735 48.1661 15.4979 43.834 11.1658C39.502 6.83374 33.6264 4.4 27.4999 4.4C21.3734 4.4 15.4978 6.83374 11.1657 11.1658C6.83361 15.4979 4.39988 21.3735 4.39988 27.5C4.38611 33.4159 6.67135 39.1057 10.7733 43.3686ZM27.4999 11C29.4579 11 31.372 11.5806 33 12.6685C34.6281 13.7563 35.897 15.3024 36.6463 17.1114C37.3956 18.9204 37.5916 20.911 37.2097 22.8314C36.8277 24.7518 35.8848 26.5158 34.5002 27.9004C33.1157 29.2849 31.3517 30.2278 29.4313 30.6098C27.5109 30.9918 25.5203 30.7957 23.7113 30.0464C21.9023 29.2971 20.3562 28.0282 19.2683 26.4001C18.1805 24.7721 17.5999 22.858 17.5999 20.9C17.5999 19.5999 17.8559 18.3126 18.3535 17.1114C18.851 15.9103 19.5802 14.8189 20.4995 13.8996C21.4188 12.9803 22.5102 12.2511 23.7113 11.7536C24.9124 11.2561 26.1998 11 27.4999 11Z" fill="#7C7777"/>
</svg>
