<svg width="24" height="30" viewBox="0 0 24 30" fill="none" xmlns="http://www.w3.org/2000/svg">
<g filter="url(#filter0_d_145_177)">
<path d="M4.1684 21.9951C4.14778 21.9951 4.12716 21.9917 4.10654 21.9848C4.04124 21.9608 4 21.8955 4 21.8267V0.1684C4 0.0756083 4.07561 0 4.1684 0H14.2827C14.3755 0 14.4511 0.0756083 14.4511 0.1684C14.4511 0.261192 14.3755 0.336801 14.2827 0.336801H4.3368V21.3868L5.04477 20.6101C5.07914 20.5723 5.12725 20.5517 5.1788 20.5551C5.23035 20.5586 5.27503 20.5826 5.30596 20.6239L6.00706 21.569L6.84562 20.7304C6.91092 20.6651 7.01746 20.6651 7.08619 20.7304L7.9007 21.5449L8.68771 20.7579C8.75301 20.6926 8.85955 20.6926 8.92829 20.7579L9.64313 21.4728L10.4817 20.6342C10.5436 20.5723 10.657 20.5723 10.7223 20.6342L11.5608 21.4728L12.3994 20.6342C12.4647 20.5689 12.5712 20.5689 12.64 20.6342L13.427 21.4212L14.1418 20.7064C14.2037 20.6445 14.3171 20.6445 14.3824 20.7064L15.0629 21.3868L15.7949 20.6548C15.8568 20.593 15.9702 20.593 16.0355 20.6548L16.8156 21.435L17.5167 20.5448C17.5442 20.507 17.5889 20.4864 17.6336 20.4795C17.6782 20.4761 17.7263 20.4899 17.7607 20.5208L18.833 21.459V4.68772C18.833 4.59492 18.9086 4.51931 19.0014 4.51931C19.0942 4.51931 19.1698 4.59492 19.1698 4.68772V21.8302C19.1698 21.8955 19.132 21.9573 19.0701 21.9848C19.0117 22.0123 18.9395 22.002 18.888 21.9573L17.6679 20.892L16.96 21.7924C16.929 21.8302 16.8843 21.8542 16.8362 21.8577C16.7881 21.8577 16.74 21.8439 16.7056 21.8096L15.9117 21.0157L15.1797 21.7477C15.1144 21.813 15.0079 21.813 14.9391 21.7477L14.2587 21.0672L13.5438 21.7821C13.482 21.8439 13.3686 21.8439 13.3033 21.7821L12.5162 20.9951L11.6777 21.8336C11.6124 21.8989 11.5058 21.8989 11.4371 21.8336L10.5985 20.9951L9.75998 21.8336C9.69812 21.8955 9.5847 21.8955 9.51941 21.8336L8.80456 21.1188L8.01755 21.9058C7.95225 21.9711 7.84571 21.9711 7.77698 21.9058L6.96247 21.0913L6.10329 21.947C6.06892 21.9814 6.02424 21.9986 5.97269 21.9951C5.92458 21.9917 5.8799 21.9676 5.84897 21.9264L5.15475 20.9916L4.29212 21.9402C4.26119 21.9745 4.21308 21.9951 4.1684 21.9951Z" fill="#232121"/>
<path d="M18.9945 4.85268H14.2827C14.19 4.85268 14.1143 4.77707 14.1143 4.68428V0.17184C14.1143 0.103105 14.1556 0.0412438 14.2174 0.0171866C14.2793 -0.0103073 14.3515 0.00343964 14.3996 0.051554L19.1148 4.564C19.1664 4.61211 19.1801 4.68428 19.156 4.74958C19.1251 4.81144 19.0632 4.85268 18.9945 4.85268ZM14.4511 4.51244H18.5752L14.4511 0.567065V4.51244ZM16.9153 8.35816H6.24421C6.15141 8.35816 6.07581 8.28255 6.07581 8.18976C6.07581 8.09697 6.15141 8.02136 6.24421 8.02136H16.9153C17.0081 8.02136 17.0837 8.09697 17.0837 8.18976C17.0837 8.28255 17.0081 8.35816 16.9153 8.35816ZM16.9153 11.19H6.24421C6.15141 11.19 6.07581 11.1144 6.07581 11.0216C6.07581 10.9288 6.15141 10.8532 6.24421 10.8532H16.9153C17.0081 10.8532 17.0837 10.9288 17.0837 11.0216C17.0837 11.1144 17.0081 11.19 16.9153 11.19ZM16.9153 14.0185H6.24421C6.15141 14.0185 6.07581 13.9429 6.07581 13.8501C6.07581 13.7573 6.15141 13.6817 6.24421 13.6817H16.9153C17.0081 13.6817 17.0837 13.7573 17.0837 13.8501C17.0837 13.9429 17.0081 14.0185 16.9153 14.0185ZM16.9153 16.8503H6.24421C6.15141 16.8503 6.07581 16.7747 6.07581 16.6819C6.07581 16.5892 6.15141 16.5135 6.24421 16.5135H16.9153C17.0081 16.5135 17.0837 16.5892 17.0837 16.6819C17.0837 16.7747 17.0081 16.8503 16.9153 16.8503Z" fill="#232121"/>
<path d="M8.3441 4.52293C7.92481 4.52293 7.58801 4.18269 7.58801 3.76684C7.58801 3.34756 7.92825 3.00732 8.3441 3.00732C8.76338 3.00732 9.10362 3.34756 9.10362 3.76684C9.10362 3.85964 9.02801 3.93524 8.93522 3.93524C8.84242 3.93524 8.76682 3.85964 8.76682 3.76684C8.76682 3.53658 8.57779 3.34756 8.34753 3.34756C8.11727 3.34756 7.92825 3.53658 7.92825 3.76684C7.92825 3.99711 8.11727 4.18613 8.34753 4.18613C8.44032 4.18613 8.51593 4.26173 8.51593 4.35453C8.5125 4.44732 8.43689 4.52293 8.3441 4.52293Z" fill="#232121"/>
<path d="M8.3441 5.6982C7.92481 5.6982 7.58801 5.35796 7.58801 4.94212C7.58801 4.84933 7.66362 4.77372 7.75641 4.77372C7.84921 4.77372 7.92481 4.84933 7.92481 4.94212C7.92481 5.17238 8.11383 5.3614 8.3441 5.3614C8.57436 5.3614 8.76338 5.17238 8.76338 4.94212C8.76338 4.71186 8.57436 4.52284 8.3441 4.52284C8.2513 4.52284 8.1757 4.44723 8.1757 4.35444C8.1757 4.26164 8.2513 4.18604 8.3441 4.18604C8.76338 4.18604 9.10362 4.52627 9.10362 4.94555C9.10362 5.36484 8.76338 5.6982 8.3441 5.6982Z" fill="#232121"/>
<path d="M8.34418 6.00067C8.25139 6.00067 8.17578 5.92506 8.17578 5.83227V5.52984C8.17578 5.43704 8.25139 5.36144 8.34418 5.36144C8.43697 5.36144 8.51258 5.43704 8.51258 5.52984V5.83227C8.51258 5.92506 8.43697 6.00067 8.34418 6.00067ZM8.34418 3.34407C8.25139 3.34407 8.17578 3.26846 8.17578 3.17567V2.87323C8.17578 2.78044 8.25139 2.70483 8.34418 2.70483C8.43697 2.70483 8.51258 2.78044 8.51258 2.87323V3.17567C8.51258 3.26846 8.43697 3.34407 8.34418 3.34407Z" fill="#232121"/>
<path d="M8.34412 6.87696C6.95224 6.87696 5.81812 5.74284 5.81812 4.35096C5.81812 2.95908 6.95224 1.82495 8.34412 1.82495C9.736 1.82495 10.8701 2.95908 10.8701 4.35096C10.8701 5.74627 9.736 6.87696 8.34412 6.87696ZM8.34412 2.16519C7.13782 2.16519 6.15835 3.14466 6.15835 4.35096C6.15835 5.55725 7.13782 6.53672 8.34412 6.53672C9.55042 6.53672 10.5299 5.55725 10.5299 4.35096C10.5299 3.1481 9.55042 2.16519 8.34412 2.16519Z" fill="#232121"/>
</g>
<defs>
<filter id="filter0_d_145_177" x="0" y="0" width="23.1698" height="30" filterUnits="userSpaceOnUse" color-interpolation-filters="sRGB">
<feFlood flood-opacity="0" result="BackgroundImageFix"/>
<feColorMatrix in="SourceAlpha" type="matrix" values="0 0 0 0 0 0 0 0 0 0 0 0 0 0 0 0 0 0 127 0" result="hardAlpha"/>
<feOffset dy="4"/>
<feGaussianBlur stdDeviation="2"/>
<feComposite in2="hardAlpha" operator="out"/>
<feColorMatrix type="matrix" values="0 0 0 0 0 0 0 0 0 0 0 0 0 0 0 0 0 0 0.25 0"/>
<feBlend mode="normal" in2="BackgroundImageFix" result="effect1_dropShadow_145_177"/>
<feBlend mode="normal" in="SourceGraphic" in2="effect1_dropShadow_145_177" result="shape"/>
</filter>
</defs>
</svg>
