<svg width="16" height="16" viewBox="0 0 16 16" fill="none" xmlns="http://www.w3.org/2000/svg">
<g clip-path="url(#clip0_10388_578)">
<path d="M8 4V12" stroke="#334155" stroke-width="1.33" stroke-linecap="round" stroke-linejoin="round"/>
<path d="M9.66667 5.3335H7.16667C6.85725 5.3335 6.5605 5.47397 6.34171 5.72402C6.12292 5.97407 6 6.31321 6 6.66683C6 7.02045 6.12292 7.35959 6.34171 7.60964C6.5605 7.85969 6.85725 8.00016 7.16667 8.00016H8.83333C9.14275 8.00016 9.4395 8.14064 9.65829 8.39069C9.87708 8.64074 10 8.97987 10 9.3335C10 9.68712 9.87708 10.0263 9.65829 10.2763C9.4395 10.5264 9.14275 10.6668 8.83333 10.6668H6" stroke="#334155" stroke-width="1.33" stroke-linecap="round" stroke-linejoin="round"/>
<rect x="1.33334" y="1.3335" width="13.3333" height="13.3333" rx="3" stroke="#334155" stroke-width="1.33" stroke-linecap="round" stroke-linejoin="round"/>
</g>
<defs>
<clipPath id="clip0_10388_578">
<rect width="16" height="16" fill="white"/>
</clipPath>
</defs>
</svg>
