<svg width="16" height="16" viewBox="0 0 16 16" fill="none" xmlns="http://www.w3.org/2000/svg">
<path fill-rule="evenodd" clip-rule="evenodd" d="M6.4714 4.19526C6.73175 4.45561 6.73175 4.87772 6.4714 5.13807L4.27614 7.33333H10.6667C11.5507 7.33333 12.3986 7.68452 13.0237 8.30964C13.6488 8.93476 14 9.78261 14 10.6667V12C14 12.3682 13.7015 12.6667 13.3333 12.6667C12.9651 12.6667 12.6667 12.3682 12.6667 12V10.6667C12.6667 10.1362 12.456 9.62753 12.0809 9.25245C11.7058 8.87738 11.1971 8.66667 10.6667 8.66667H4.27614L6.4714 10.8619C6.73175 11.1223 6.73175 11.5444 6.4714 11.8047C6.21106 12.0651 5.78894 12.0651 5.5286 11.8047L2.19526 8.4714C1.93491 8.21106 1.93491 7.78894 2.19526 7.5286L5.5286 4.19526C5.78894 3.93491 6.21106 3.93491 6.4714 4.19526Z" fill="#0F172A"/>
</svg>
