<svg width="22" height="20" viewBox="0 0 22 20" fill="none" xmlns="http://www.w3.org/2000/svg">
<path d="M22 11.6238C21.9987 13.6205 21.2052 15.5352 19.7937 16.9475C18.3822 18.3598 16.4681 19.1545 14.4713 19.157H0.91701C0.673804 19.157 0.440559 19.0604 0.268586 18.8884C0.0966135 18.7165 0 18.4832 0 18.24C0 17.9968 0.0966135 17.7636 0.268586 17.5916C0.440559 17.4196 0.673804 17.323 0.91701 17.323H14.4713C15.9733 17.3095 17.4093 16.7034 18.4666 15.6365C19.5239 14.5697 20.1172 13.1284 20.1172 11.6263C20.1172 10.1243 19.5239 8.68297 18.4666 7.61609C17.4093 6.54922 15.9733 5.94309 14.4713 5.92962H3.47639L6.4773 8.39684C6.57092 8.47311 6.64855 8.56713 6.70574 8.67349C6.76292 8.77985 6.79854 8.89645 6.81054 9.01661C6.82254 9.13677 6.81069 9.25812 6.77567 9.37369C6.74065 9.48926 6.68315 9.59677 6.60647 9.69006C6.52979 9.78334 6.43543 9.86056 6.32883 9.91729C6.22222 9.97401 6.10546 10.0091 5.98525 10.0206C5.86504 10.0321 5.74375 10.0197 5.62833 9.98419C5.51292 9.94867 5.40565 9.8907 5.3127 9.81362L0.334709 5.72054C0.323705 5.71137 0.315452 5.70037 0.304906 5.69074C0.281035 5.66908 0.258381 5.64612 0.237047 5.62196L0.229711 5.61508C0.223292 5.60775 0.215039 5.60225 0.20862 5.59491V5.59216C0.198991 5.5807 0.192114 5.5674 0.183402 5.55548C0.165367 5.53151 0.148682 5.50656 0.133425 5.48074C0.129757 5.47478 0.124714 5.46928 0.121504 5.46286C0.118295 5.45644 0.110041 5.44773 0.105915 5.43948C0.101788 5.43122 0.0962861 5.41472 0.090784 5.4028C0.0785615 5.3761 0.0675465 5.34887 0.0577718 5.32118L0.0545623 5.31293C0.0356342 5.26052 0.0222642 5.20628 0.0146724 5.15108C0.0119214 5.13411 0.00641936 5.11806 0.00504385 5.1011C0.00366833 5.08414 0.00504385 5.06855 0.00504385 5.0525C0.00504385 5.03645 0.000916944 5.02636 0.000916944 5.01261C0.000916944 4.99885 0.00458534 4.98601 0.00504385 4.97226V4.92412C0.00504385 4.90807 0.0119214 4.89065 0.0146724 4.87368C0.0222374 4.81848 0.0356081 4.76423 0.0545623 4.71183L0.0577718 4.70358C0.067859 4.67561 0.0784044 4.64856 0.090784 4.62196C0.0962861 4.61004 0.0994956 4.5972 0.105915 4.58528C0.112334 4.57336 0.116919 4.57015 0.121504 4.5619C0.126089 4.55364 0.129757 4.54998 0.133425 4.54402C0.148384 4.51822 0.164762 4.49327 0.182485 4.46928C0.191197 4.45736 0.198074 4.44406 0.207703 4.4326V4.43031C0.216873 4.41884 0.228336 4.41105 0.237964 4.40004C0.259055 4.37712 0.280605 4.35419 0.303989 4.33402C0.314535 4.32439 0.322788 4.31339 0.333792 4.30422L0.338377 4.30009L5.31453 0.211141C5.40749 0.134056 5.51475 0.0760895 5.63017 0.0405688C5.74558 0.00504811 5.86688 -0.00732694 5.98709 0.00415386C6.1073 0.0156347 6.22406 0.0507449 6.33066 0.10747C6.43727 0.164195 6.53162 0.241417 6.6083 0.334703C6.68498 0.427989 6.74248 0.535502 6.7775 0.65107C6.81253 0.766638 6.82438 0.887986 6.81237 1.00815C6.80037 1.12831 6.76476 1.24491 6.70757 1.35127C6.65038 1.45763 6.57275 1.55165 6.47914 1.62792L3.47822 4.0956H14.4732C16.4688 4.09827 18.382 4.89232 19.793 6.30359C21.204 7.71486 21.9977 9.62814 22 11.6238Z" fill="#7C7777"/>
</svg>
