<svg width="16" height="16" viewBox="0 0 16 16" fill="none" xmlns="http://www.w3.org/2000/svg">
<path d="M6.66671 11.3333V12.6667C6.66671 13.0203 6.52623 13.3594 6.27618 13.6095C6.02613 13.8595 5.687 14 5.33337 14C4.97975 14 4.64061 13.8595 4.39056 13.6095C4.14052 13.3594 4.00004 13.0203 4.00004 12.6667V3.33333C4.00004 2.97971 3.85956 2.64057 3.60952 2.39052C3.35947 2.14048 3.02033 2 2.66671 2C2.31309 2 1.97395 2.14048 1.7239 2.39052C1.47385 2.64057 1.33337 2.97971 1.33337 3.33333V5.33333H3.33337" stroke="#334155" stroke-width="1.33" stroke-linecap="round" stroke-linejoin="round"/>
<path d="M14.6667 11.3333V12.6666C14.6667 13.0202 14.5262 13.3593 14.2762 13.6094C14.0261 13.8594 13.687 13.9999 13.3334 13.9999H5.33337" stroke="#334155" stroke-width="1.33" stroke-linecap="round" stroke-linejoin="round"/>
<path d="M12.6666 11.3333V3.33333C12.6666 2.97971 12.5262 2.64057 12.2761 2.39052C12.0261 2.14048 11.6869 2 11.3333 2H2.66663" stroke="#334155" stroke-width="1.33" stroke-linecap="round" stroke-linejoin="round"/>
<path d="M14.6666 11.3333H6.66663" stroke="#334155" stroke-width="1.33" stroke-linecap="round" stroke-linejoin="round"/>
</svg>
