<svg width="16" height="16" viewBox="0 0 16 16" fill="none" xmlns="http://www.w3.org/2000/svg">
<path fill-rule="evenodd" clip-rule="evenodd" d="M8.47141 0.86201C8.21106 0.601661 7.78895 0.601661 7.5286 0.86201L5.19527 3.19534C4.93492 3.45569 4.93492 3.8778 5.19527 4.13815L7.5286 6.47149C7.78895 6.73184 8.21106 6.73184 8.47141 6.47149L10.8047 4.13815C11.0651 3.8778 11.0651 3.45569 10.8047 3.19534L8.47141 0.86201ZM8.00001 5.05727L6.60948 3.66675L8.00001 2.27622L9.39053 3.66675L8.00001 5.05727ZM4.13808 5.19534C3.87773 4.93499 3.45562 4.93499 3.19527 5.19534L0.861934 7.52868C0.601584 7.78903 0.601584 8.21114 0.861934 8.47149L3.19527 10.8048C3.45562 11.0652 3.87773 11.0652 4.13808 10.8048L6.47141 8.47149C6.73176 8.21114 6.73176 7.78903 6.47141 7.52868L4.13808 5.19534ZM3.66667 9.39061L2.27615 8.00008L3.66667 6.60956L5.0572 8.00008L3.66667 9.39061ZM11.8619 5.19534C12.1223 4.93499 12.5444 4.93499 12.8047 5.19534L15.1381 7.52868C15.3984 7.78903 15.3984 8.21114 15.1381 8.47149L12.8047 10.8048C12.5444 11.0652 12.1223 11.0652 11.8619 10.8048L9.5286 8.47149C9.26825 8.21114 9.26825 7.78903 9.5286 7.52868L11.8619 5.19534ZM10.9428 8.00008L12.3333 9.39061L13.7239 8.00008L12.3333 6.60956L10.9428 8.00008ZM10.8047 11.862L8.47141 9.52868C8.21106 9.26833 7.78895 9.26833 7.5286 9.52868L5.19527 11.862C4.93492 12.1224 4.93492 12.5445 5.19527 12.8048L7.5286 15.1382C7.78895 15.3985 8.21106 15.3985 8.47141 15.1382L10.8047 12.8048C11.0651 12.5445 11.0651 12.1224 10.8047 11.862ZM8.00001 13.7239L6.60948 12.3334L8.00001 10.9429L9.39053 12.3334L8.00001 13.7239Z" fill="black"/>
</svg>
