<svg width="17" height="17" viewBox="0 0 17 17" fill="none" xmlns="http://www.w3.org/2000/svg">
<path d="M7.65 0L2.975 7.65H12.325L7.65 0ZM7.65 3.264L9.2905 5.95H6.001L7.65 3.264ZM12.325 9.35C10.2085 9.35 8.5 11.0585 8.5 13.175C8.5 15.2915 10.2085 17 12.325 17C14.4415 17 16.15 15.2915 16.15 13.175C16.15 11.0585 14.4415 9.35 12.325 9.35ZM12.325 15.3C11.152 15.3 10.2 14.348 10.2 13.175C10.2 12.002 11.152 11.05 12.325 11.05C13.498 11.05 14.45 12.002 14.45 13.175C14.45 14.348 13.498 15.3 12.325 15.3ZM0 16.575H6.8V9.775H0V16.575ZM1.7 11.475H5.1V14.875H1.7V11.475Z" fill="#7C7777"/>
</svg>
