<svg width="16" height="16" viewBox="0 0 16 16" fill="none" xmlns="http://www.w3.org/2000/svg">
<g clip-path="url(#clip0_10094_3658)">
<path fill-rule="evenodd" clip-rule="evenodd" d="M6.67774 2.14358C7.93978 1.85843 9.26018 1.98889 10.442 2.51549C10.7783 2.66534 11.1725 2.51418 11.3223 2.17787C11.4722 1.84155 11.321 1.44744 10.9847 1.29758C9.54022 0.653964 7.92639 0.494518 6.38389 0.843024C4.8414 1.19153 3.45288 2.02932 2.42543 3.23144C1.39797 4.43356 0.786633 5.9356 0.682583 7.51355C0.578534 9.0915 0.987349 10.6608 1.84806 11.9874C2.70877 13.3141 3.97525 14.3269 5.45863 14.8749C6.94201 15.423 8.5628 15.4768 10.0793 15.0284C11.5958 14.5801 12.9267 13.6535 13.8735 12.3869C14.8204 11.1203 15.3325 9.58163 15.3334 8.00025V7.99987V7.38654C15.3334 7.01835 15.0349 6.71987 14.6667 6.71987C14.2985 6.71987 14 7.01835 14 7.38654V7.99949C13.9993 9.29334 13.5803 10.5523 12.8056 11.5886C12.0309 12.6249 10.942 13.383 9.70124 13.7498C8.46048 14.1167 7.13438 14.0726 5.9207 13.6242C4.70703 13.1758 3.67081 12.3471 2.9666 11.2617C2.26238 10.1763 1.9279 8.89233 2.01303 7.60128C2.09816 6.31023 2.59835 5.08128 3.43899 4.09773C4.27963 3.11418 5.41569 2.42872 6.67774 2.14358ZM15.1383 3.1378C15.3985 2.87732 15.3983 2.45521 15.1379 2.19499C14.8774 1.93477 14.4553 1.93498 14.195 2.19546L7.99979 8.39692L6.47143 6.86856C6.21108 6.60821 5.78897 6.60821 5.52862 6.86856C5.26827 7.12891 5.26827 7.55102 5.52862 7.81136L7.52862 9.81137C7.65368 9.93643 7.82332 10.0067 8.00019 10.0066C8.17706 10.0066 8.34666 9.93626 8.47166 9.81113L15.1383 3.1378Z" fill="#60C54F"/>
</g>
<defs>
<clipPath id="clip0_10094_3658">
<rect width="16" height="16" fill="white"/>
</clipPath>
</defs>
</svg>
