<svg width="16" height="16" viewBox="0 0 16 16" fill="none" xmlns="http://www.w3.org/2000/svg">
<path fill-rule="evenodd" clip-rule="evenodd" d="M8.66665 2.00016C8.66665 1.63197 8.36817 1.3335 7.99998 1.3335C7.63179 1.3335 7.33331 1.63197 7.33331 2.00016V8.39069L5.13805 6.19543C4.8777 5.93508 4.45559 5.93508 4.19524 6.19543C3.93489 6.45577 3.93489 6.87788 4.19524 7.13823L7.5281 10.4711C7.52971 10.4727 7.53132 10.4743 7.53295 10.4759C7.59584 10.5377 7.66795 10.5844 7.74479 10.6162C7.82281 10.6486 7.90832 10.6666 7.99798 10.6668C7.99865 10.6668 7.99931 10.6668 7.99998 10.6668C8.00065 10.6668 8.00131 10.6668 8.00198 10.6668C8.18307 10.6663 8.34717 10.5936 8.46701 10.4759C8.46864 10.4743 8.47025 10.4727 8.47186 10.4711L11.8047 7.13823C12.0651 6.87788 12.0651 6.45577 11.8047 6.19543C11.5444 5.93508 11.1223 5.93508 10.8619 6.19543L8.66665 8.39069V2.00016ZM1.99998 9.3335C2.36817 9.3335 2.66665 9.63197 2.66665 10.0002V12.6668C2.66665 12.8436 2.73688 13.0132 2.86191 13.1382C2.98693 13.2633 3.1565 13.3335 3.33331 13.3335H12.6666C12.8435 13.3335 13.013 13.2633 13.1381 13.1382C13.2631 13.0132 13.3333 12.8436 13.3333 12.6668V10.0002C13.3333 9.63197 13.6318 9.3335 14 9.3335C14.3682 9.3335 14.6666 9.63197 14.6666 10.0002V12.6668C14.6666 13.1973 14.4559 13.706 14.0809 14.081C13.7058 14.4561 13.1971 14.6668 12.6666 14.6668H3.33331C2.80288 14.6668 2.29417 14.4561 1.9191 14.081C1.54403 13.706 1.33331 13.1973 1.33331 12.6668V10.0002C1.33331 9.63197 1.63179 9.3335 1.99998 9.3335Z" fill="#0F172A"/>
</svg>
