<svg width="20" height="20" viewBox="0 0 20 20" fill="none" xmlns="http://www.w3.org/2000/svg">
<path d="M7.95077 8.03805L6.74897 12.0457C6.6469 12.3866 6.74015 12.7564 6.99185 13.0078C7.17582 13.1918 7.42311 13.2913 7.67607 13.2913C7.769 13.2913 7.86256 13.2781 7.95392 13.2504L11.9619 12.0489C12.1153 12.0029 12.2552 11.9197 12.3683 11.8063L19.7165 4.45817C19.8979 4.27672 20 4.03037 20 3.77394C20 3.51752 19.8979 3.27117 19.7165 3.08972L16.9099 0.283519C16.5319 -0.0945064 15.9195 -0.0945064 15.5415 0.283519L8.19365 7.63168C8.08024 7.74509 7.99708 7.88433 7.95077 8.03805ZM9.73473 8.8275L16.2257 2.33619L17.6635 3.77394L11.1725 10.2652L9.11917 10.8808L9.73473 8.8275Z" fill="#7C7777"/>
<path d="M19.0323 9.03226C18.4977 9.03226 18.0645 9.46573 18.0645 10V16.4516C18.0645 17.3412 17.3409 18.0645 16.4516 18.0645H3.54839C2.65908 18.0645 1.93548 17.3412 1.93548 16.4516V3.54839C1.93548 2.65877 2.65908 1.93548 3.54839 1.93548H10C10.5346 1.93548 10.9677 1.50201 10.9677 0.967742C10.9677 0.433471 10.5346 0 10 0H3.54839C1.5918 0 0 1.59211 0 3.54839V16.4516C0 18.4079 1.5918 20 3.54839 20H16.4516C18.4082 20 20 18.4079 20 16.4516V10C20 9.46573 19.5668 9.03226 19.0323 9.03226Z" fill="#7C7777"/>
</svg>
