<svg width="16" height="16" viewBox="0 0 16 16" fill="none" xmlns="http://www.w3.org/2000/svg">
<path d="M2.66669 8.99992V2.66659C2.66669 2.31296 2.80716 1.97382 3.05721 1.72378C3.30726 1.47373 3.6464 1.33325 4.00002 1.33325H9.66669L13.3334 4.99992V13.3333C13.3334 13.6869 13.1929 14.026 12.9428 14.2761C12.6928 14.5261 12.3536 14.6666 12 14.6666H8.33335" stroke="#0F172A" stroke-width="1.33" stroke-linecap="round" stroke-linejoin="round"/>
<path d="M9.33331 1.33325V5.33325H13.3333" stroke="#0F172A" stroke-width="1.33" stroke-linecap="round" stroke-linejoin="round"/>
<path d="M6.94669 8.40665C7.0767 8.27664 7.23104 8.17352 7.4009 8.10316C7.57077 8.0328 7.75283 7.99658 7.93669 7.99658C8.12055 7.99658 8.30261 8.0328 8.47247 8.10316C8.64234 8.17352 8.79668 8.27664 8.92669 8.40665C9.0567 8.53666 9.15982 8.691 9.23018 8.86087C9.30054 9.03073 9.33676 9.21279 9.33676 9.39665C9.33676 9.58051 9.30054 9.76257 9.23018 9.93244C9.15982 10.1023 9.0567 10.2566 8.92669 10.3867L5.30002 14L2.66669 14.6667L3.32669 12.0333L6.94669 8.40665Z" stroke="#0F172A" stroke-width="1.33" stroke-linecap="round" stroke-linejoin="round"/>
</svg>
