<svg width="17" height="16" viewBox="0 0 17 16" fill="none" xmlns="http://www.w3.org/2000/svg">
<path fill-rule="evenodd" clip-rule="evenodd" d="M7.50141 0.935094C7.8051 0.760092 8.14946 0.667969 8.49998 0.667969C8.85052 0.667969 9.19489 0.7601 9.49859 0.935116C9.49905 0.935383 9.49952 0.93565 9.49998 0.935918L14.1666 3.60258C14.4704 3.77795 14.7227 4.0301 14.8982 4.33375C15.0737 4.63739 15.1663 4.98186 15.1666 5.33258V6.6666C15.1666 7.03479 14.8682 7.33327 14.5 7.33327C14.1318 7.33327 13.8333 7.03479 13.8333 6.6666V5.70702L9.16665 8.38594V13.7192L10.1698 13.1474C10.4897 12.9651 10.8968 13.0766 11.0792 13.3965C11.2615 13.7163 11.15 14.1235 10.8301 14.3058L9.49998 15.064C9.49938 15.0643 9.49878 15.0646 9.49817 15.065C9.20986 15.2311 8.88492 15.3224 8.55285 15.3312C8.53541 15.3326 8.51777 15.3333 8.49998 15.3333C8.48218 15.3333 8.46455 15.3326 8.44711 15.3312C8.11482 15.3224 7.78967 15.2309 7.50121 15.0647C7.5008 15.0644 7.50039 15.0642 7.49998 15.064L2.83589 12.3988L2.83331 12.3973C2.52958 12.2219 2.27729 11.9698 2.10177 11.6661C1.92626 11.3625 1.83367 11.018 1.83331 10.6673V5.33258C1.83367 4.98186 1.92626 4.63739 2.10177 4.33375C2.27729 4.0301 2.52958 3.77795 2.83331 3.60258L2.83588 3.6011L5.1718 2.2663C5.19164 2.25352 5.2121 2.24184 5.23307 2.23129L7.50141 0.935094ZM5.53267 3.59576L3.84597 4.55958L8.49998 7.23123L10.1728 6.27095L5.53267 3.59576ZM11.5104 5.50309L6.87335 2.82965L8.16407 2.0921L8.16665 2.09062C8.26799 2.03211 8.38295 2.0013 8.49998 2.0013C8.617 2.0013 8.73197 2.03211 8.83331 2.09062L13.154 4.55958L11.5104 5.50309ZM7.83331 8.38594L3.16665 5.70702V10.6662C3.16682 10.783 3.19767 10.8977 3.25613 10.9989C3.31444 11.0997 3.39815 11.1835 3.49893 11.242C3.49928 11.2422 3.49963 11.2424 3.49998 11.2426L7.83331 13.7188V8.38594ZM11.3619 8.1952C11.6223 7.93485 12.0444 7.93485 12.3047 8.1952L13.5 9.39046L14.6952 8.1952C14.9556 7.93485 15.3777 7.93485 15.6381 8.1952C15.8984 8.45555 15.8984 8.87766 15.6381 9.13801L14.4428 10.3333L15.6381 11.5285C15.8984 11.7889 15.8984 12.211 15.6381 12.4713C15.3777 12.7317 14.9556 12.7317 14.6952 12.4713L13.5 11.2761L12.3047 12.4713C12.0444 12.7317 11.6223 12.7317 11.3619 12.4713C11.1016 12.211 11.1016 11.7889 11.3619 11.5285L12.5572 10.3333L11.3619 9.13801C11.1016 8.87766 11.1016 8.45555 11.3619 8.1952Z" fill="black"/>
</svg>
