<svg width="28" height="22" viewBox="0 0 28 22" fill="none" xmlns="http://www.w3.org/2000/svg">
<path d="M13.7673 18.3238C12.3485 18.3235 10.9606 17.9095 9.77359 17.1323C8.58658 16.3551 7.65202 15.2486 7.08442 13.9483C6.51681 12.648 6.3408 11.2104 6.57795 9.81154C6.8151 8.4127 7.45512 7.11341 8.41958 6.07284C8.50522 5.98047 8.60936 5.90718 8.72521 5.85775C8.84106 5.80832 8.96603 5.78385 9.09197 5.78595C9.21809 5.78794 9.34237 5.81651 9.45669 5.86981C9.57101 5.92311 9.6728 5.99993 9.7554 6.09525L18.1154 15.679C18.1979 15.7734 18.2596 15.884 18.2967 16.0036C18.3337 16.1233 18.3453 16.2494 18.3306 16.3738C18.3155 16.4991 18.2742 16.6197 18.2093 16.7278C18.1444 16.8359 18.0574 16.9292 17.9541 17.0014C16.7286 17.8642 15.266 18.3261 13.7673 18.3238ZM9.11887 8.09001C8.48791 9.09159 8.19664 10.2699 8.28826 11.4501C8.37988 12.6303 8.84952 13.7495 9.6275 14.6417C10.4055 15.5339 11.4503 16.1516 12.6071 16.403C13.7638 16.6545 14.9708 16.5264 16.049 16.0377L9.11887 8.09001ZM19.6933 14.3387C19.5765 14.3381 19.4609 14.3153 19.3526 14.2715C19.2437 14.2268 19.1447 14.161 19.0612 14.078C18.9777 13.995 18.9114 13.8964 18.866 13.7877C18.8207 13.6791 18.7971 13.5626 18.7968 13.4448C18.7964 13.3271 18.8193 13.2105 18.864 13.1016C19.1331 12.4444 19.2702 11.7407 19.2675 11.0306C19.2663 9.57223 18.6864 8.17393 17.6552 7.14271C16.624 6.11149 15.2257 5.53163 13.7673 5.53044C13.3137 5.531 12.862 5.58822 12.4225 5.70078C12.1919 5.76023 11.9471 5.72561 11.742 5.60456C11.5369 5.48351 11.3882 5.28593 11.3288 5.05529C11.2693 4.82465 11.304 4.57984 11.425 4.37472C11.5461 4.16961 11.7436 4.02098 11.9743 3.96153C13.0505 3.69038 14.1743 3.6681 15.2604 3.89639C16.3465 4.12468 17.3663 4.59754 18.2422 5.27903C19.1182 5.96052 19.8273 6.83271 20.3156 7.82933C20.804 8.82594 21.0587 9.92076 21.0605 11.0306C21.0632 11.9744 20.8805 12.9096 20.5226 13.7829C20.4551 13.9473 20.3401 14.088 20.1925 14.1869C20.0448 14.2859 19.8711 14.3388 19.6933 14.3387Z" fill="#0f172a"/>
<path d="M16.9635 10.0489C16.807 10.0479 16.6535 10.0061 16.5183 9.92743C16.383 9.84879 16.2707 9.73613 16.1925 9.60063C15.9863 9.24961 15.7064 8.94757 15.372 8.71538C15.0377 8.48319 14.6569 8.3264 14.256 8.25585C14.0275 8.20941 13.826 8.07577 13.6944 7.88328C13.5628 7.69079 13.5114 7.4546 13.5511 7.22481C13.5907 6.99503 13.7183 6.78974 13.9068 6.6525C14.0954 6.51526 14.3299 6.45686 14.5608 6.48971C15.2178 6.60258 15.8423 6.85763 16.3905 7.23703C16.9387 7.61643 17.3974 8.11101 17.7345 8.68618C17.8129 8.82207 17.8543 8.97618 17.8546 9.13309C17.8548 9.29001 17.8139 9.44424 17.7358 9.58037C17.6578 9.7165 17.5454 9.82976 17.4098 9.90883C17.2743 9.9879 17.1204 10.03 16.9635 10.031V10.0489ZM0.897827 11.9271C0.722752 11.9274 0.551433 11.8763 0.405013 11.7804C0.258594 11.6844 0.143482 11.5476 0.0738838 11.387C0.00428582 11.2263 -0.0167522 11.0488 0.0133661 10.8764C0.0434844 10.7039 0.123441 10.544 0.243368 10.4165C0.391294 10.2641 0.543702 10.0937 0.691628 9.91441C2.15295 8.34102 4.35391 5.97421 7.40656 4.42323C7.51204 4.36591 7.62797 4.33037 7.74745 4.3187C7.86693 4.30703 7.98754 4.31948 8.10212 4.3553C8.2167 4.39113 8.32292 4.4496 8.41448 4.52725C8.50603 4.6049 8.58106 4.70015 8.63511 4.80735C8.68916 4.91454 8.72112 5.0315 8.72912 5.15129C8.73711 5.27107 8.72096 5.39124 8.68163 5.50467C8.64231 5.61809 8.5806 5.72247 8.50017 5.81159C8.41974 5.90072 8.32223 5.97279 8.21343 6.02352C5.43422 7.4445 3.38567 9.65442 2.02744 11.1292L1.55229 11.6447C1.46831 11.734 1.3669 11.8052 1.25433 11.8537C1.14176 11.9023 1.02043 11.9273 0.897827 11.9271Z" fill="#0f172a"/>
<path d="M26.6369 11.9276C26.5143 11.9278 26.393 11.9028 26.2804 11.8542C26.1679 11.8056 26.0665 11.7345 25.9825 11.6452L25.5028 11.1252C23.2839 8.71804 19.5948 4.6837 13.7674 4.6837C13.0473 4.68274 12.3286 4.74725 11.6202 4.87645C11.3873 4.91978 11.1467 4.86913 10.951 4.73557C10.7552 4.60202 10.6204 4.39642 10.5758 4.16372C10.5537 4.04804 10.5546 3.92915 10.5784 3.81382C10.6023 3.69849 10.6487 3.589 10.7148 3.49159C10.781 3.39418 10.8658 3.31077 10.9642 3.24612C11.0626 3.18146 11.1728 3.13684 11.2885 3.11479C12.1061 2.96384 12.936 2.88881 13.7674 2.89066C20.3613 2.89066 24.566 7.44498 26.8252 9.91041C26.9866 10.0942 27.1435 10.26 27.2735 10.4169C27.3924 10.5434 27.4721 10.7016 27.5028 10.8724C27.5335 11.0433 27.514 11.2194 27.4466 11.3793C27.3792 11.5393 27.2668 11.6762 27.1231 11.7736C26.9794 11.8709 26.8105 11.9244 26.6369 11.9276ZM13.7674 19.1715C7.17349 19.1715 2.96881 14.6171 0.709583 12.1517C0.54821 11.9679 0.391319 11.8021 0.261323 11.6452C0.0984497 11.4716 0.0111987 11.2404 0.0187646 11.0025C0.0263304 10.7646 0.128093 10.5395 0.301667 10.3766C0.47524 10.2137 0.706406 10.1265 0.94431 10.134C1.18221 10.1416 1.40737 10.2434 1.57024 10.4169L2.04988 10.9369C4.25084 13.3441 7.94001 17.3784 13.7674 17.3784C15.2516 17.3795 16.723 17.1043 18.1065 16.5671C18.2171 16.5206 18.3359 16.4969 18.4558 16.4972C18.5757 16.4975 18.6944 16.5218 18.8047 16.5688C18.9151 16.6158 19.0149 16.6844 19.0982 16.7706C19.1816 16.8569 19.2468 16.9589 19.2899 17.0708C19.3331 17.1827 19.3534 17.3021 19.3497 17.422C19.3459 17.5418 19.3181 17.6597 19.2679 17.7686C19.2178 17.8776 19.1463 17.9753 19.0577 18.0561C18.9691 18.1369 18.8651 18.1992 18.752 18.2391C17.1628 18.8566 15.4724 19.1728 13.7674 19.1715Z" fill="#0f172a"/>
<path d="M21.6478 16.5805C21.4572 16.5801 21.2717 16.5189 21.1182 16.4059C20.9648 16.2928 20.8513 16.1339 20.7944 15.952C20.7374 15.7701 20.7399 15.5748 20.8015 15.3944C20.863 15.214 20.9805 15.058 21.1368 14.9489C22.7437 13.7715 24.2142 12.4183 25.5208 10.9145L25.969 10.4125C26.1319 10.2389 26.357 10.1371 26.5949 10.1296C26.8328 10.122 27.064 10.2093 27.2376 10.3721C27.4112 10.535 27.5129 10.7602 27.5205 10.9981C27.5281 11.236 27.4408 11.4671 27.2779 11.6407C27.1345 11.7886 26.9866 11.9545 26.8297 12.1293C25.439 13.7278 23.8721 15.1639 22.1588 16.4102C22.01 16.518 21.8316 16.5775 21.6478 16.5805ZM21.6523 22C21.5239 21.9999 21.397 21.9723 21.2802 21.9189C21.1634 21.8655 21.0595 21.7877 20.9754 21.6907L3.41257 1.5459C3.32226 1.45994 3.25086 1.35607 3.20296 1.24095C3.15505 1.12583 3.13169 1.00198 3.13436 0.87732C3.13703 0.752657 3.16568 0.629923 3.21847 0.516958C3.27126 0.403993 3.34703 0.303283 3.44095 0.221262C3.53487 0.139242 3.64486 0.0777137 3.7639 0.0406104C3.88295 0.00350698 4.00842 -0.008356 4.13231 0.00577944C4.25619 0.0199149 4.37577 0.0597379 4.4834 0.122704C4.59102 0.18567 4.68433 0.270394 4.75735 0.371464L22.3291 20.5163C22.4417 20.6461 22.5146 20.8056 22.5391 20.9756C22.5636 21.1457 22.5387 21.3192 22.4674 21.4756C22.396 21.6319 22.2813 21.7645 22.1368 21.8574C21.9923 21.9504 21.8241 21.9999 21.6523 22Z" fill="#0f172a"/>
</svg>
