<svg width="22" height="22" viewBox="0 0 22 22" fill="none" xmlns="http://www.w3.org/2000/svg">
<path d="M15.5272 6.64506e-06C15.2855 0.000911862 15.0539 0.0970923 14.8827 0.267678C14.7114 0.438263 14.6144 0.669491 14.6125 0.911188V4.58363C14.6125 6.09072 15.8529 7.33103 17.36 7.33103H21.0324C21.2657 7.31668 21.4847 7.21389 21.6449 7.04361C21.805 6.87333 21.8941 6.64839 21.8941 6.41465C21.8941 6.18091 21.805 5.95597 21.6449 5.7857C21.4847 5.61542 21.2657 5.51263 21.0324 5.49827H17.36C17.2396 5.49968 17.1202 5.47695 17.0088 5.43144C16.8974 5.38593 16.7962 5.31855 16.7113 5.23329C16.6264 5.14803 16.5594 5.04662 16.5143 4.93503C16.4692 4.82345 16.4469 4.70396 16.4488 4.58363V0.911188C16.4469 0.668291 16.3489 0.436019 16.1762 0.265237C16.0035 0.0944552 15.7701 -0.000916876 15.5272 6.64506e-06Z" fill="#7C7777"/>
<path d="M7.28144 3.5823e-07C6.55298 0.00272467 5.85503 0.292838 5.33928 0.807289C4.82354 1.32174 4.53167 2.01895 4.52711 2.7474V10.0819C4.52665 10.203 4.55017 10.3231 4.59632 10.4351C4.64248 10.5471 4.71034 10.6489 4.79601 10.7346C4.88168 10.8202 4.98345 10.8881 5.09547 10.9342C5.20749 10.9804 5.32753 11.0039 5.44868 11.0035C5.56925 11.003 5.68855 10.9788 5.79976 10.9323C5.91098 10.8857 6.01194 10.8177 6.09687 10.7321C6.1818 10.6465 6.24905 10.5451 6.29477 10.4335C6.34049 10.3219 6.36378 10.2025 6.36333 10.0819V2.7474C6.36144 2.62648 6.38393 2.50641 6.42945 2.39436C6.47496 2.28231 6.54258 2.18058 6.62826 2.09522C6.71394 2.00986 6.81593 1.94263 6.92815 1.89754C7.04037 1.85245 7.16052 1.83042 7.28144 1.83276H15.1564L20.1107 6.79402V19.2526C20.1121 19.3726 20.0895 19.4918 20.0442 19.6029C19.9989 19.7141 19.9318 19.8151 19.847 19.9C19.7621 19.9849 19.6611 20.052 19.5499 20.0973C19.4387 20.1426 19.3196 20.1652 19.1995 20.1638H7.28144C7.16081 20.1661 7.04095 20.1442 6.92897 20.0993C6.81698 20.0544 6.71515 19.9875 6.62952 19.9025C6.54388 19.8175 6.4762 19.7162 6.43047 19.6046C6.38475 19.4929 6.36191 19.3732 6.36333 19.2526V17.4164C6.36333 17.1735 6.26708 16.9405 6.09564 16.7684C5.92421 16.5963 5.69158 16.4992 5.44868 16.4983C5.32782 16.4978 5.20806 16.5212 5.09627 16.5672C4.98448 16.6131 4.88286 16.6806 4.79724 16.7659C4.71162 16.8512 4.64368 16.9526 4.59732 17.0642C4.55097 17.1758 4.52711 17.2955 4.52711 17.4164V19.2526C4.52711 20.7597 5.77435 22 7.28144 22H19.1995C19.9274 21.9973 20.6246 21.7069 21.1392 21.1923C21.6539 20.6776 21.9442 19.9804 21.9469 19.2526V6.41638C21.9475 6.2956 21.9242 6.1759 21.8785 6.06413C21.8327 5.95236 21.7653 5.85072 21.6802 5.76504L16.1819 0.270237C16.0965 0.184488 15.995 0.116468 15.8832 0.070091C15.7714 0.0237137 15.6516 -0.000106544 15.5306 3.5823e-07H7.28144Z" fill="#7C7777"/>
<path d="M0.861738 14.6687C0.628439 14.6543 0.409399 14.5515 0.249274 14.3813C0.0891502 14.211 0 13.9861 0 13.7523C0 13.5186 0.0891502 13.2936 0.249274 13.1234C0.409399 12.9531 0.628439 12.8503 0.861738 12.8359H11.8617C12.1052 12.8359 12.3388 12.9327 12.5109 13.1048C12.6831 13.277 12.7798 13.5106 12.7798 13.754C12.7798 13.9975 12.6831 14.2311 12.5109 14.4033C12.3388 14.5754 12.1052 14.6722 11.8617 14.6722L0.861738 14.6687Z" fill="#7C7777"/>
<path d="M9.3811 10.3523C9.21078 10.5242 9.11523 10.7565 9.11523 10.9985C9.11523 11.2405 9.21078 11.4727 9.3811 11.6446L11.4841 13.7511L9.3811 15.8541C9.21078 16.026 9.11523 16.2582 9.11523 16.5002C9.11523 16.7422 9.21078 16.9744 9.3811 17.1463C9.46637 17.2317 9.56763 17.2994 9.67909 17.3457C9.79056 17.3919 9.91004 17.4156 10.0307 17.4156C10.1514 17.4156 10.2708 17.3919 10.3823 17.3457C10.4938 17.2994 10.595 17.2317 10.6803 17.1463L13.4277 14.3989C13.5131 14.3137 13.5808 14.2124 13.627 14.1009C13.6732 13.9895 13.697 13.87 13.697 13.7493C13.697 13.6287 13.6732 13.5092 13.627 13.3977C13.5808 13.2863 13.5131 13.185 13.4277 13.0997L10.6803 10.3523C10.595 10.2669 10.4938 10.1992 10.3823 10.153C10.2708 10.1068 10.1514 10.083 10.0307 10.083C9.91004 10.083 9.79056 10.1068 9.67909 10.153C9.56763 10.1992 9.46637 10.2669 9.3811 10.3523Z" fill="#7C7777"/>
</svg>
