<svg width="23" height="23" viewBox="0 0 23 23" fill="none" xmlns="http://www.w3.org/2000/svg">
<path d="M21.7222 10.2222C21.3833 10.2222 21.0583 10.3568 20.8187 10.5965C20.5791 10.8361 20.4444 11.1611 20.4444 11.5V19.1667C20.4444 19.5056 20.3098 19.8306 20.0702 20.0702C19.8306 20.3098 19.5056 20.4444 19.1667 20.4444H3.83333C3.49445 20.4444 3.16944 20.3098 2.92981 20.0702C2.69018 19.8306 2.55556 19.5056 2.55556 19.1667V3.83333C2.55556 3.49445 2.69018 3.16944 2.92981 2.92981C3.16944 2.69018 3.49445 2.55556 3.83333 2.55556H11.5C11.8389 2.55556 12.1639 2.42093 12.4035 2.1813C12.6432 1.94167 12.7778 1.61667 12.7778 1.27778C12.7778 0.93889 12.6432 0.613882 12.4035 0.374252C12.1639 0.134623 11.8389 0 11.5 0H3.83333C2.81667 0 1.84165 0.403868 1.12276 1.12276C0.403868 1.84165 0 2.81667 0 3.83333V19.1667C0 20.1833 0.403868 21.1584 1.12276 21.8772C1.84165 22.5961 2.81667 23 3.83333 23H19.1667C20.1833 23 21.1584 22.5961 21.8772 21.8772C22.5961 21.1584 23 20.1833 23 19.1667V11.5C23 11.1611 22.8654 10.8361 22.6257 10.5965C22.3861 10.3568 22.0611 10.2222 21.7222 10.2222Z" fill="#0f172a"/>
<path d="M16.6111 2.55556H18.63L10.5928 10.58C10.473 10.6988 10.378 10.8401 10.3131 10.9958C10.2482 11.1515 10.2148 11.3185 10.2148 11.4872C10.2148 11.6559 10.2482 11.8229 10.3131 11.9786C10.378 12.1343 10.473 12.2757 10.5928 12.3944C10.7116 12.5142 10.8529 12.6093 11.0086 12.6741C11.1643 12.739 11.3313 12.7724 11.5 12.7724C11.6687 12.7724 11.8357 12.739 11.9914 12.6741C12.1471 12.6093 12.2885 12.5142 12.4073 12.3944L20.4445 4.37V6.38889C20.4445 6.72778 20.5791 7.05278 20.8187 7.29241C21.0584 7.53204 21.3834 7.66667 21.7223 7.66667C22.0611 7.66667 22.3861 7.53204 22.6258 7.29241C22.8654 7.05278 23 6.72778 23 6.38889V1.27778C23 0.93889 22.8654 0.613882 22.6258 0.374252C22.3861 0.134623 22.0611 0 21.7223 0H16.6111C16.2723 0 15.9472 0.134623 15.7076 0.374252C15.468 0.613882 15.3334 0.93889 15.3334 1.27778C15.3334 1.61667 15.468 1.94167 15.7076 2.1813C15.9472 2.42093 16.2723 2.55556 16.6111 2.55556Z" fill="#0f172a"/>
</svg>
