<svg width="18" height="14" viewBox="0 0 18 14" fill="none" xmlns="http://www.w3.org/2000/svg">
<path d="M16.3125 1.125C16.4617 1.125 16.6048 1.18426 16.7102 1.28975C16.8157 1.39524 16.875 1.53832 16.875 1.6875V11.8125C16.875 11.9617 16.8157 12.1048 16.7102 12.2102C16.6048 12.3157 16.4617 12.375 16.3125 12.375H1.6875C1.53832 12.375 1.39524 12.3157 1.28975 12.2102C1.18426 12.1048 1.125 11.9617 1.125 11.8125V1.6875C1.125 1.53832 1.18426 1.39524 1.28975 1.28975C1.39524 1.18426 1.53832 1.125 1.6875 1.125H16.3125ZM1.6875 0C1.23995 0 0.810725 0.17779 0.494257 0.494257C0.17779 0.810725 0 1.23995 0 1.6875L0 11.8125C0 12.2601 0.17779 12.6893 0.494257 13.0057C0.810725 13.3222 1.23995 13.5 1.6875 13.5H16.3125C16.7601 13.5 17.1893 13.3222 17.5057 13.0057C17.8222 12.6893 18 12.2601 18 11.8125V1.6875C18 1.23995 17.8222 0.810725 17.5057 0.494257C17.1893 0.17779 16.7601 0 16.3125 0H1.6875Z" fill="#0F172A"/>
<path d="M7.87517 3.93753C7.87517 3.78834 7.93444 3.64527 8.03993 3.53978C8.14542 3.43429 8.28849 3.37503 8.43767 3.37503H14.0627C14.2119 3.37503 14.3549 3.43429 14.4604 3.53978C14.5659 3.64527 14.6252 3.78834 14.6252 3.93753C14.6252 4.08671 14.5659 4.22979 14.4604 4.33528C14.3549 4.44077 14.2119 4.50003 14.0627 4.50003H8.43767C8.28849 4.50003 8.14542 4.44077 8.03993 4.33528C7.93444 4.22979 7.87517 4.08671 7.87517 3.93753ZM6.19217 2.97678C6.24456 3.02903 6.28612 3.0911 6.31448 3.15944C6.34283 3.22778 6.35743 3.30104 6.35743 3.37503C6.35743 3.44902 6.34283 3.52228 6.31448 3.59062C6.28612 3.65896 6.24456 3.72103 6.19217 3.77328L4.50467 5.46078C4.45242 5.51316 4.39035 5.55472 4.32201 5.58308C4.25367 5.61144 4.18041 5.62603 4.10642 5.62603C4.03244 5.62603 3.95917 5.61144 3.89084 5.58308C3.8225 5.55472 3.76042 5.51316 3.70817 5.46078L3.14567 4.89828C3.09337 4.84598 3.05189 4.78389 3.02358 4.71556C2.99528 4.64723 2.98071 4.57399 2.98071 4.50003C2.98071 4.35066 3.04005 4.2074 3.14567 4.10178C3.2513 3.99616 3.39455 3.93682 3.54392 3.93682C3.6933 3.93682 3.83655 3.99616 3.94217 4.10178L4.10642 4.26715L5.39567 2.97678C5.44792 2.9244 5.51 2.88283 5.57834 2.85448C5.64667 2.82612 5.71994 2.81152 5.79392 2.81152C5.86791 2.81152 5.94117 2.82612 6.00951 2.85448C6.07785 2.88283 6.13992 2.9244 6.19217 2.97678ZM7.87517 8.43753C7.87517 8.28835 7.93444 8.14527 8.03993 8.03978C8.14542 7.93429 8.28849 7.87503 8.43767 7.87503H14.0627C14.2119 7.87503 14.3549 7.93429 14.4604 8.03978C14.5659 8.14527 14.6252 8.28835 14.6252 8.43753C14.6252 8.58671 14.5659 8.72979 14.4604 8.83528C14.3549 8.94077 14.2119 9.00003 14.0627 9.00003H8.43767C8.28849 9.00003 8.14542 8.94077 8.03993 8.83528C7.93444 8.72979 7.87517 8.58671 7.87517 8.43753ZM6.19217 7.47678C6.24456 7.52903 6.28612 7.5911 6.31448 7.65944C6.34283 7.72778 6.35743 7.80104 6.35743 7.87503C6.35743 7.94902 6.34283 8.02228 6.31448 8.09062C6.28612 8.15896 6.24456 8.22103 6.19217 8.27328L4.50467 9.96078C4.45242 10.0132 4.39035 10.0547 4.32201 10.0831C4.25367 10.1114 4.18041 10.126 4.10642 10.126C4.03244 10.126 3.95917 10.1114 3.89084 10.0831C3.8225 10.0547 3.76042 10.0132 3.70817 9.96078L3.14567 9.39828C3.09337 9.34598 3.05189 9.28389 3.02358 9.21556C2.99528 9.14723 2.98071 9.07399 2.98071 9.00003C2.98071 8.92607 2.99528 8.85283 3.02358 8.7845C3.05189 8.71617 3.09337 8.65408 3.14567 8.60178C3.19797 8.54948 3.26006 8.508 3.32839 8.47969C3.39672 8.45139 3.46996 8.43682 3.54392 8.43682C3.61789 8.43682 3.69112 8.45139 3.75945 8.47969C3.82779 8.508 3.88987 8.54948 3.94217 8.60178L4.10642 8.76716L5.39567 7.47678C5.44792 7.4244 5.51 7.38284 5.57834 7.35448C5.64667 7.32612 5.71994 7.31152 5.79392 7.31152C5.86791 7.31152 5.94117 7.32612 6.00951 7.35448C6.07785 7.38284 6.13992 7.4244 6.19217 7.47678Z" fill="#0F172A"/>
</svg>
