<svg width="16" height="16" viewBox="0 0 16 16" fill="none" xmlns="http://www.w3.org/2000/svg">
<g clip-path="url(#clip0_10388_355)">
<path d="M8 4V12" stroke="#334155" stroke-width="1.33" stroke-linecap="round" stroke-linejoin="round"/>
<path d="M9.66667 5.33325H7.16667C6.85725 5.33325 6.5605 5.47373 6.34171 5.72378C6.12292 5.97382 6 6.31296 6 6.66659C6 7.02021 6.12292 7.35935 6.34171 7.60939C6.5605 7.85944 6.85725 7.99992 7.16667 7.99992H8.83333C9.14275 7.99992 9.4395 8.14039 9.65829 8.39044C9.87708 8.64049 10 8.97963 10 9.33325C10 9.68687 9.87708 10.026 9.65829 10.2761C9.4395 10.5261 9.14275 10.6666 8.83333 10.6666H6" stroke="#334155" stroke-width="1.33" stroke-linecap="round" stroke-linejoin="round"/>
<rect x="1.33337" y="1.33325" width="13.3333" height="13.3333" rx="3" stroke="#334155" stroke-width="1.33" stroke-linecap="round" stroke-linejoin="round"/>
</g>
<defs>
<clipPath id="clip0_10388_355">
<rect width="16" height="16" fill="white"/>
</clipPath>
</defs>
</svg>
