<svg width="20" height="20" viewBox="0 0 20 20" fill="none" xmlns="http://www.w3.org/2000/svg">
<path d="M17.0711 2.92892C16.1425 2.00034 15.0401 1.26374 13.8268 0.761199C12.6136 0.258654 11.3132 -1.93968e-06 9.99998 0C7.34782 3.91739e-06 4.80428 1.05358 2.92892 2.92894C1.05356 4.80431 -3.91737e-06 7.34785 0 10C3.91739e-06 12.6522 1.05358 15.1957 2.92894 17.0711C4.80431 18.9464 7.34785 20 10 20C12.6522 20 15.1957 18.9464 17.0711 17.0711C18.9464 15.1957 20 12.6522 20 9.99999C20 7.34782 18.9464 4.80428 17.0711 2.92892ZM10 18.6631C5.22314 18.6631 1.33685 14.7769 1.33685 9.99998C1.33685 5.22308 5.22314 1.33687 10 1.33687C14.7769 1.33687 18.6631 5.22312 18.6631 9.99998C18.6631 14.7768 14.7769 18.6631 10 18.6631Z" fill="#7C7777"/>
<path d="M10.0002 7.327C9.47135 7.327 8.9544 7.48381 8.51471 7.7776C8.07501 8.0714 7.73231 8.48898 7.52994 8.97755C7.32757 9.46611 7.27463 10.0037 7.37779 10.5224C7.48096 11.041 7.73561 11.5174 8.10954 11.8914C8.48347 12.2653 8.95988 12.52 9.47854 12.6231C9.9972 12.7263 10.5348 12.6733 11.0234 12.471C11.5119 12.2686 11.9295 11.9259 12.2233 11.4862C12.5171 11.0465 12.6739 10.5296 12.6739 10.0008C12.6731 9.29187 12.3911 8.61226 11.8899 8.11101C11.3886 7.60976 10.709 7.3278 10.0002 7.327ZM10.0002 11.3376C9.73575 11.3376 9.47728 11.2592 9.25744 11.1123C9.03759 10.9654 8.86624 10.7566 8.76505 10.5123C8.66387 10.2681 8.63739 9.99927 8.68898 9.73994C8.74056 9.48061 8.86789 9.2424 9.05485 9.05543C9.24182 8.86847 9.48002 8.74114 9.73935 8.68956C9.99868 8.63798 10.2675 8.66445 10.5118 8.76564C10.756 8.86682 10.9648 9.03817 11.1117 9.25802C11.2586 9.47787 11.337 9.73634 11.337 10.0008C11.3366 10.3552 11.1957 10.695 10.945 10.9456C10.6944 11.1963 10.3546 11.3372 10.0002 11.3376Z" fill="#7C7777"/>
</svg>
