<svg width="24" height="24" viewBox="0 0 24 24" fill="none" xmlns="http://www.w3.org/2000/svg">
<path d="M20.7083 1H3.29167C2.02804 1 1 2.02804 1 3.29167V20.7083C1 21.972 2.02804 23 3.29167 23H20.7083C21.972 23 23 21.972 23 20.7083V3.29167C23 2.02804 21.972 1 20.7083 1ZM22.0833 20.7083C22.0833 21.4664 21.4664 22.0833 20.7083 22.0833H3.29167C2.53358 22.0833 1.91667 21.4664 1.91667 20.7083V3.29167C1.91667 2.53358 2.53358 1.91667 3.29167 1.91667H20.7083C21.4664 1.91667 22.0833 2.53358 22.0833 3.29167V20.7083Z" fill="#7C7777" stroke="#7C7777"/>
<path d="M18.9855 4L11.787 11.1985L4.5886 4L4 4.5886L11.1985 11.787L4 18.9855L4.5886 19.5741L11.787 12.3756L18.9855 19.5741L19.5741 18.9855L12.3756 11.787L19.5741 4.5886L18.9855 4Z" fill="#7C7777" stroke="#7C7777" stroke-width="0.908212"/>
</svg>
