<svg width="16" height="16" viewBox="0 0 16 16" fill="none" xmlns="http://www.w3.org/2000/svg">
<path d="M14.6666 8.66669V4.00002C14.6666 3.6464 14.5261 3.30726 14.2761 3.05721C14.026 2.80716 13.6869 2.66669 13.3333 2.66669H2.66659C2.31296 2.66669 1.97382 2.80716 1.72378 3.05721C1.47373 3.30726 1.33325 3.6464 1.33325 4.00002V12C1.33325 12.7334 1.93325 13.3334 2.66659 13.3334H8.66659" stroke="#0F172A" stroke-width="1.33" stroke-linecap="round" stroke-linejoin="round"/>
<path d="M14.6666 4.66669L8.68659 8.46669C8.48077 8.59564 8.2428 8.66403 7.99992 8.66403C7.75704 8.66403 7.51907 8.59564 7.31325 8.46669L1.33325 4.66669" stroke="#0F172A" stroke-width="1.33" stroke-linecap="round" stroke-linejoin="round"/>
<path d="M11.3333 11.3333L13.9999 14" stroke="#0F172A" stroke-width="1.33" stroke-linecap="round" stroke-linejoin="round"/>
<path d="M13.9999 11.3333L11.3333 14" stroke="#0F172A" stroke-width="1.33" stroke-linecap="round" stroke-linejoin="round"/>
</svg>
