<svg width="16" height="16" viewBox="0 0 16 16" fill="none" xmlns="http://www.w3.org/2000/svg">
<rect x="0.333333" y="0.333333" width="15.3333" height="15.3333" rx="3.66667" fill="#F1F5F9"/>
<rect x="0.333333" y="0.333333" width="15.3333" height="15.3333" rx="3.66667" stroke="#CBD5E1" stroke-width="0.666667"/>
<path fill-rule="evenodd" clip-rule="evenodd" d="M9.00558 5.11648C9.30932 4.81274 9.80178 4.81274 10.1055 5.11648L12.4389 7.44981C12.7426 7.75355 12.7426 8.24601 12.4389 8.54976L10.1055 10.8831C9.80178 11.1868 9.30932 11.1868 9.00558 10.8831C8.70184 10.5793 8.70184 10.0869 9.00558 9.78314L10.0112 8.77756H4.11111C3.68155 8.77756 3.33333 8.42934 3.33333 7.99978C3.33333 7.57023 3.68155 7.22201 4.11111 7.22201H10.0112L9.00558 6.21642C8.70184 5.91268 8.70184 5.42022 9.00558 5.11648Z" fill="#0F172A"/>
</svg>
