<svg width="17" height="17" viewBox="0 0 17 17" fill="none" xmlns="http://www.w3.org/2000/svg">
<path d="M16.7114 15.5324L13.6318 12.4778C14.8272 10.9874 15.4061 9.09555 15.2495 7.19139C15.0928 5.28723 14.2126 3.51545 12.7898 2.24036C11.3669 0.965267 9.50959 0.283789 7.59971 0.33605C5.68984 0.388311 3.87257 1.17034 2.52157 2.52133C1.17058 3.87232 0.388555 5.68959 0.336294 7.59947C0.284033 9.50935 0.965511 11.3667 2.2406 12.7895C3.51569 14.2124 5.28747 15.0926 7.19164 15.2492C9.0958 15.4059 10.9876 14.827 12.4781 13.6316L15.5327 16.6862C15.6098 16.764 15.7017 16.8258 15.8028 16.8679C15.904 16.9101 16.0124 16.9318 16.122 16.9318C16.2316 16.9318 16.3401 16.9101 16.4412 16.8679C16.5424 16.8258 16.6342 16.764 16.7114 16.6862C16.861 16.5314 16.9446 16.3246 16.9446 16.1093C16.9446 15.8941 16.861 15.6872 16.7114 15.5324ZM7.8214 13.6316C6.67221 13.6316 5.54882 13.2908 4.5933 12.6524C3.63778 12.0139 2.89304 11.1064 2.45326 10.0447C2.01348 8.983 1.89842 7.81471 2.12261 6.6876C2.34681 5.56049 2.9002 4.52517 3.71281 3.71256C4.52541 2.89996 5.56073 2.34657 6.68784 2.12237C7.81496 1.89817 8.98324 2.01324 10.045 2.45302C11.1067 2.8928 12.0141 3.63753 12.6526 4.59305C13.2911 5.54858 13.6318 6.67196 13.6318 7.82116C13.6318 9.36218 13.0197 10.8401 11.93 11.9298C10.8403 13.0194 9.36243 13.6316 7.8214 13.6316Z" fill="#7C7777"/>
</svg>
