<svg width="18" height="18" viewBox="0 0 18 18" fill="none" xmlns="http://www.w3.org/2000/svg">
<path d="M9 16.875C6.91142 16.875 4.90838 16.0453 3.43153 14.5685C1.95468 13.0916 1.125 11.0886 1.125 9C1.125 6.91142 1.95468 4.90838 3.43153 3.43153C4.90838 1.95468 6.91142 1.125 9 1.125C11.0886 1.125 13.0916 1.95468 14.5685 3.43153C16.0453 4.90838 16.875 6.91142 16.875 9C16.875 11.0886 16.0453 13.0916 14.5685 14.5685C13.0916 16.0453 11.0886 16.875 9 16.875ZM9 18C11.3869 18 13.6761 17.0518 15.364 15.364C17.0518 13.6761 18 11.3869 18 9C18 6.61305 17.0518 4.32387 15.364 2.63604C13.6761 0.948212 11.3869 0 9 0C6.61305 0 4.32387 0.948212 2.63604 2.63604C0.948212 4.32387 0 6.61305 0 9C0 11.3869 0.948212 13.6761 2.63604 15.364C4.32387 17.0518 6.61305 18 9 18Z" fill="#0F172A"/>
<path d="M12.3411 5.59126C12.3331 5.59903 12.3256 5.60729 12.3186 5.61601L8.41152 10.5941L6.05689 8.23839C5.89695 8.08935 5.68539 8.00821 5.4668 8.01206C5.24822 8.01592 5.03966 8.10447 4.88507 8.25906C4.73048 8.41365 4.64193 8.62221 4.63807 8.8408C4.63421 9.05939 4.71535 9.27094 4.86439 9.43089L7.84114 12.4088C7.92133 12.4888 8.01683 12.5519 8.12192 12.5942C8.22702 12.6366 8.33957 12.6573 8.45286 12.6552C8.56614 12.6531 8.67785 12.6282 8.7813 12.582C8.88476 12.5358 8.97785 12.4692 9.05502 12.3863L13.546 6.77251C13.6989 6.61201 13.7825 6.39777 13.7788 6.17611C13.775 5.95446 13.6841 5.74319 13.5258 5.58799C13.3675 5.43279 13.1545 5.34613 12.9328 5.34674C12.7111 5.34736 12.4986 5.43519 12.3411 5.59126Z" fill="#0F172A"/>
</svg>
