<svg width="17" height="17" viewBox="0 0 17 17" fill="none" xmlns="http://www.w3.org/2000/svg">
<path d="M15.1519 8.95281C15.0172 8.79956 14.943 8.60256 14.943 8.39858C14.943 8.1946 15.0172 7.99759 15.1519 7.84435L16.2267 6.63511C16.3452 6.503 16.4187 6.33676 16.4368 6.16025C16.4549 5.98373 16.4167 5.80602 16.3275 5.65261L14.648 2.7471C14.5598 2.59387 14.4254 2.4724 14.264 2.40003C14.1027 2.32765 13.9226 2.30805 13.7495 2.34403L12.1708 2.66313C11.9699 2.70464 11.7608 2.67118 11.5829 2.56908C11.405 2.46697 11.2706 2.30328 11.2051 2.1089L10.6928 0.572168C10.6365 0.405377 10.5292 0.260509 10.386 0.158041C10.2429 0.0555733 10.0711 0.000687579 9.89507 0.00114202H6.5361C6.35298 -0.00841598 6.17177 0.0422276 6.02013 0.145338C5.8685 0.248448 5.75479 0.398357 5.69636 0.572168L5.2261 2.1089C5.1606 2.30328 5.02622 2.46697 4.84831 2.56908C4.6704 2.67118 4.46128 2.70464 4.2604 2.66313L2.63969 2.34403C2.47556 2.32083 2.30824 2.34673 2.15881 2.41846C2.00938 2.49019 1.88451 2.60454 1.79995 2.7471L0.120462 5.65261C0.0290644 5.80431 -0.012031 5.98103 0.00305125 6.15749C0.0181334 6.33395 0.0886208 6.50113 0.204436 6.63511L1.27091 7.84435C1.40554 7.99759 1.47978 8.1946 1.47978 8.39858C1.47978 8.60256 1.40554 8.79956 1.27091 8.95281L0.204436 10.162C0.0886208 10.296 0.0181334 10.4632 0.00305125 10.6397C-0.012031 10.8161 0.0290644 10.9928 0.120462 11.1445L1.79995 14.05C1.8882 14.2033 2.02258 14.3247 2.18392 14.3971C2.34527 14.4695 2.52534 14.4891 2.69847 14.4531L4.27719 14.134C4.47807 14.0925 4.6872 14.126 4.86511 14.2281C5.04301 14.3302 5.1774 14.4939 5.2429 14.6883L5.75514 16.225C5.81357 16.3988 5.92728 16.5487 6.07892 16.6518C6.23055 16.7549 6.41176 16.8056 6.59488 16.796H9.95386C10.1299 16.7965 10.3016 16.7416 10.4448 16.6391C10.5879 16.5366 10.6953 16.3918 10.7516 16.225L11.2639 14.6883C11.3294 14.4939 11.4637 14.3302 11.6416 14.2281C11.8196 14.126 12.0287 14.0925 12.2296 14.134L13.8083 14.4531C13.9814 14.4891 14.1615 14.4695 14.3228 14.3971C14.4842 14.3247 14.6185 14.2033 14.7068 14.05L16.3863 11.1445C16.4754 10.9911 16.5137 10.8134 16.4956 10.6369C16.4775 10.4604 16.404 10.2942 16.2855 10.162L15.1519 8.95281ZM13.9007 10.0781L14.5724 10.8338L13.4976 12.6981L12.5067 12.4965C11.9019 12.3729 11.2727 12.4756 10.7387 12.7852C10.2046 13.0948 9.80282 13.5897 9.60956 14.176L9.29046 15.1165H7.14072L6.83841 14.1592C6.64515 13.5729 6.24335 13.078 5.70929 12.7684C5.17524 12.4588 4.54609 12.3561 3.94129 12.4797L2.9504 12.6813L1.85873 10.8254L2.53053 10.0697C2.94364 9.60779 3.17203 9.00985 3.17203 8.39018C3.17203 7.7705 2.94364 7.17257 2.53053 6.71069L1.85873 5.95492L2.9336 4.10749L3.9245 4.30903C4.5293 4.43265 5.15844 4.32992 5.6925 4.02032C6.22656 3.71072 6.62835 3.21581 6.82161 2.62954L7.14072 1.68063H9.29046L9.60956 2.63794C9.80282 3.22421 10.2046 3.71912 10.7387 4.02872C11.2727 4.33832 11.9019 4.44105 12.5067 4.31742L13.4976 4.11588L14.5724 5.98011L13.9007 6.73588C13.4922 7.1967 13.2666 7.79117 13.2666 8.40697C13.2666 9.02277 13.4922 9.61725 13.9007 10.0781ZM8.21559 5.0396C7.55125 5.0396 6.90182 5.2366 6.34944 5.60569C5.79706 5.97478 5.36653 6.49938 5.1123 7.11315C4.85807 7.72692 4.79155 8.4023 4.92116 9.05388C5.05076 9.70546 5.37067 10.304 5.84043 10.7737C6.3102 11.2435 6.90871 11.5634 7.56028 11.693C8.21186 11.8226 8.88724 11.7561 9.50101 11.5019C10.1148 11.2476 10.6394 10.8171 11.0085 10.2647C11.3776 9.71234 11.5746 9.06292 11.5746 8.39858C11.5746 7.50772 11.2207 6.65335 10.5907 6.02342C9.96081 5.39349 9.10644 5.0396 8.21559 5.0396ZM8.21559 10.0781C7.88342 10.0781 7.5587 9.97956 7.28251 9.79502C7.00632 9.61047 6.79106 9.34817 6.66394 9.04129C6.53683 8.7344 6.50357 8.39671 6.56837 8.07092C6.63317 7.74514 6.79313 7.44588 7.02801 7.211C7.26289 6.97612 7.56215 6.81616 7.88794 6.75136C8.21373 6.68656 8.55141 6.71982 8.8583 6.84693C9.16518 6.97405 9.42749 7.18931 9.61203 7.4655C9.79657 7.74169 9.89507 8.0664 9.89507 8.39858C9.89507 8.844 9.71813 9.27119 9.40316 9.58615C9.0882 9.90112 8.66102 10.0781 8.21559 10.0781Z" fill="#7C7777"/>
</svg>
