<svg width="16" height="16" viewBox="0 0 16 16" fill="none" xmlns="http://www.w3.org/2000/svg">
<rect x="0.333333" y="0.333333" width="15.3333" height="15.3333" rx="3.66667" fill="#F1F5F9"/>
<rect x="0.333333" y="0.333333" width="15.3333" height="15.3333" rx="3.66667" stroke="#CBD5E1" stroke-width="0.666667"/>
<path fill-rule="evenodd" clip-rule="evenodd" d="M9.00526 5.11648C9.309 4.81274 9.80146 4.81274 10.1052 5.11648L12.4385 7.44981C12.7423 7.75355 12.7423 8.24601 12.4385 8.54976L10.1052 10.8831C9.80146 11.1868 9.309 11.1868 9.00526 10.8831C8.70152 10.5793 8.70152 10.0869 9.00526 9.78314L10.0108 8.77756H4.11079C3.68123 8.77756 3.33301 8.42934 3.33301 7.99978C3.33301 7.57023 3.68123 7.22201 4.11079 7.22201H10.0108L9.00526 6.21642C8.70152 5.91268 8.70152 5.42022 9.00526 5.11648Z" fill="#0F172A"/>
</svg>
