<svg width="170" height="175" viewBox="0 0 170 175" fill="none" xmlns="http://www.w3.org/2000/svg">
<rect width="170" height="175" fill="#F5F5F5"/>
<g id="F1P1-&#230;&#156;&#170;&#231;&#153;&#187;&#229;&#189;&#149;">
<rect width="1512" height="982" transform="translate(-671 -263)" fill="white"/>
<g id="logo">
<path id="Vector" d="M117.404 58.3757H118.139C119.603 58.3757 120.79 57.1863 120.79 55.7243C120.79 54.2603 119.603 53.0709 118.139 53.0709H117.404C115.94 53.0709 114.752 54.2603 114.752 55.7243C114.752 57.1863 115.94 58.3757 117.404 58.3757Z" fill="black"/>
<path id="Vector_2" d="M117.404 81.0049H118.139C119.603 81.0049 120.79 79.8194 120.79 78.3535C120.79 76.8895 119.603 75.702 118.139 75.702H117.404C115.94 75.702 114.752 76.8895 114.752 78.3535C114.752 79.8194 115.94 81.0049 117.404 81.0049Z" fill="black"/>
<path id="Vector_3" d="M117.404 69.6894H118.139C119.603 69.6894 120.79 68.502 120.79 67.038C120.79 65.574 119.603 64.3866 118.139 64.3866H117.404C115.94 64.3866 114.752 65.574 114.752 67.038C114.752 68.502 115.94 69.6894 117.404 69.6894Z" fill="black"/>
<path id="Vector_4" d="M140.684 91.2316H125.716C124.252 91.2316 123.064 92.419 123.064 93.883V112.437H110.749C109.285 112.437 108.097 113.625 108.097 115.089V131.92H95.784C94.32 131.92 93.1326 133.107 93.1326 134.571V153.885C93.1326 155.351 94.32 156.537 95.784 156.537C97.248 156.537 98.4354 155.351 98.4354 153.885V137.222H108.097V153.885C108.097 155.351 109.285 156.537 110.749 156.537C112.213 156.537 113.4 155.351 113.4 153.885V134.585C113.4 134.581 113.4 134.577 113.4 134.571C113.4 134.569 113.4 134.565 113.4 134.563V117.74H123.064V153.885C123.064 155.351 124.252 156.537 125.716 156.537C127.179 156.537 128.367 155.351 128.367 153.885V96.5344H138.033V153.885C138.033 155.351 139.22 156.537 140.684 156.537C142.148 156.537 143.336 155.351 143.336 153.885V93.883C143.336 92.419 142.148 91.2316 140.684 91.2316Z" fill="black"/>
<path id="Vector_5" d="M109.745 18.5714C111.209 18.5714 112.397 17.384 112.397 15.92V15.7711C112.397 14.3071 111.209 13.1196 109.745 13.1196C108.281 13.1196 107.094 14.3071 107.094 15.7711V15.92C107.094 17.384 108.281 18.5714 109.745 18.5714Z" fill="black"/>
<path id="Vector_6" d="M44.1712 150.505V139.605C48.1841 140.475 49.5088 141.943 49.5088 144.997C49.5088 147.493 47.2403 149.679 44.1712 150.505ZM33.5326 127.974C33.5326 125.478 35.7972 123.29 38.8683 122.466V133.3C33.5365 131.916 33.5326 129.222 33.5326 127.974ZM44.1712 134.192V122.463C46.3024 123.029 48.0835 124.251 48.9538 125.853C49.65 127.143 51.2629 127.618 52.549 126.92C53.835 126.224 54.3127 124.615 53.6146 123.325C51.8411 120.055 48.2885 117.744 44.1712 117.04V114.499C44.1712 113.035 42.9857 111.847 41.5197 111.847C40.0557 111.847 38.8683 113.035 38.8683 114.499V117.036C32.8054 118.071 28.2297 122.582 28.2297 127.974C28.2297 131.981 30.1521 136.94 38.8683 138.733V150.512C36.6578 149.93 34.838 148.644 34.0025 146.952C33.3508 145.641 31.763 145.101 30.448 145.753C29.1368 146.403 28.5972 147.992 29.2489 149.304C30.9643 152.771 34.5904 155.208 38.8683 155.931V158.472C38.8683 159.936 40.0557 161.124 41.5197 161.124C42.9857 161.124 44.1712 159.936 44.1712 158.472V155.935C50.234 154.9 54.8117 150.389 54.8117 144.997C54.8117 137.07 48.5186 134.956 44.1712 134.192Z" fill="black"/>
<path id="Vector_7" d="M149.553 53.0709H127.309C125.845 53.0709 124.657 54.2603 124.657 55.7243C124.657 57.1863 125.845 58.3757 127.309 58.3757H149.553C151.015 58.3757 152.204 57.1863 152.204 55.7243C152.204 54.2603 151.015 53.0709 149.553 53.0709Z" fill="black"/>
<path id="Vector_8" d="M137.28 81.0049C138.744 81.0049 139.931 79.8194 139.931 78.3535C139.931 76.8895 138.744 75.702 137.28 75.702H127.309C125.845 75.702 124.657 76.8895 124.657 78.3535C124.657 79.8194 125.845 81.0049 127.309 81.0049H137.28Z" fill="black"/>
<path id="Vector_9" d="M152.204 67.038C152.204 65.574 151.015 64.3866 149.553 64.3866H127.309C125.845 64.3866 124.657 65.574 124.657 67.038C124.657 68.502 125.845 69.6894 127.309 69.6894H149.553C151.015 69.6894 152.204 68.502 152.204 67.038Z" fill="black"/>
<path id="Vector_10" d="M86.6323 81.0801C78.8888 81.0801 72.5881 74.7813 72.5881 67.0378C72.5881 60.2033 77.5003 54.4943 83.9789 53.2508V67.0378C83.9789 68.5018 85.1644 69.6892 86.6323 69.6892H100.419C99.1758 76.1698 93.4668 81.0801 86.6323 81.0801ZM100.419 64.3864H89.2837V53.2508C94.9018 54.3299 99.3382 58.7683 100.419 64.3864ZM105.977 67.0378C105.977 56.3721 97.2979 47.6926 86.6323 47.6926C75.9628 47.6926 67.2852 56.3721 67.2852 67.0378C67.2852 77.7073 75.9628 86.3829 86.6323 86.3829C97.2979 86.3829 105.977 77.7073 105.977 67.0378Z" fill="black"/>
<path id="Vector_11" d="M90.3879 156.537H146.079C147.543 156.537 148.731 155.351 148.731 153.885C148.731 152.421 147.543 151.234 146.079 151.234H90.3879C88.922 151.234 87.7365 152.421 87.7365 153.885C87.7365 155.351 88.922 156.537 90.3879 156.537Z" fill="black"/>
<path id="Vector_12" d="M77.7557 30.2332L79.0147 27.1099C80.3878 23.7081 83.6426 21.5092 87.3074 21.5092H92.7011V21.6291C92.7011 23.0931 93.8886 24.2806 95.3526 24.2806C96.8165 24.2806 98.004 23.0931 98.004 21.6291V17.0418C98.004 10.569 103.27 5.30285 109.745 5.30285C116.22 5.30285 121.486 10.569 121.486 17.0418V21.6291C121.486 23.0931 122.673 24.2806 124.137 24.2806C125.601 24.2806 126.789 23.0931 126.789 21.6291V21.5092H132.182C135.847 21.5092 139.102 23.7081 140.475 27.1099L141.734 30.2332C141.846 30.5136 141.759 30.736 141.666 30.8753C141.572 31.0126 141.398 31.1789 141.096 31.1789H78.3939C78.0922 31.1789 77.9181 31.0126 77.8234 30.8753C77.7305 30.736 77.6435 30.5136 77.7557 30.2332ZM78.3939 36.4817H141.096C143.09 36.4817 144.946 35.4935 146.06 33.8419C147.176 32.1884 147.399 30.0998 146.652 28.2509L145.393 25.1257C143.21 19.7087 138.023 16.2064 132.182 16.2064H126.767C126.33 7.19617 118.863 0 109.745 0C100.628 0 93.1595 7.19617 92.7224 16.2064H87.3074C81.4669 16.2064 76.2801 19.7087 74.0967 25.1276L72.8377 28.2509C72.0912 30.0998 72.3136 32.1884 73.4295 33.8419C74.5434 35.4935 76.4 36.4817 78.3939 36.4817Z" fill="black"/>
<path id="Vector_13" d="M159.101 22.3293H153.794C152.33 22.3293 151.143 23.5168 151.143 24.9808C151.143 26.4448 152.33 27.6322 153.794 27.6322H159.101C161.888 27.6322 164.152 29.8988 164.152 32.6817V164.646C164.152 167.431 161.888 169.697 159.099 169.697H74.588C73.124 169.697 71.9346 170.883 71.9346 172.349C71.9346 173.813 73.124 175 74.588 175H159.099C164.81 175 169.455 170.357 169.455 164.646V32.6817C169.455 26.9727 164.81 22.3293 159.101 22.3293Z" fill="black"/>
<path id="Vector_14" d="M52.6857 64.727C54.1516 64.727 55.3372 63.5396 55.3372 62.0756V32.6817C55.3372 29.8988 57.6018 27.6322 60.3886 27.6322H65.6953C67.1612 27.6322 68.3467 26.4448 68.3467 24.9808C68.3467 23.5168 67.1612 22.3293 65.6953 22.3293H60.3886C54.6796 22.3293 50.0343 26.9727 50.0343 32.6817V62.0756C50.0343 63.5396 51.2217 64.727 52.6857 64.727Z" fill="black"/>
<path id="Vector_15" d="M41.8001 169.697H41.2412C21.0876 169.697 5.30285 157.95 5.30285 142.953C5.30285 131.241 15.7867 120.345 24.209 111.59C28.0479 107.6 31.672 103.831 33.9773 100.375C34.5304 99.5436 34.9017 98.6907 35.1299 97.8224H47.9113C48.1569 98.7275 48.5418 99.6345 49.091 100.541C51.0888 103.82 54.6046 107.457 58.6756 111.673C67.1694 120.463 77.7364 131.403 77.7364 142.953C77.7364 157.95 61.9517 169.697 41.8001 169.697ZM24.0465 78.1427C22.6483 76.7425 21.3236 75.4216 20.8478 74.737C20.4746 74.2032 20.4475 73.7294 20.755 73.155C21.5054 71.7452 24.093 70.2657 28.0285 70.2657C28.131 70.2657 28.2316 70.2677 28.3321 70.2677C33.0722 70.3605 35.9151 71.8883 38.6632 73.3658C41.4906 74.8878 44.4147 76.4621 48.4025 75.4526C48.9169 75.3249 49.4681 75.1779 50.0425 75.0232C51.959 74.5146 57.7995 72.9578 58.8168 73.8609C59.3254 74.8936 56.2504 78.8834 54.5969 81.0262C51.9532 84.455 48.9189 88.3964 47.9132 92.5195H34.865C33.196 87.2863 27.9628 82.0531 24.0465 78.1427ZM83.0393 142.953C83.0393 129.258 71.6465 117.465 62.4893 107.987C58.6369 104.001 55.3105 100.561 53.6203 97.7837C53.6145 97.7702 53.6106 97.7586 53.6029 97.745C54.769 97.4685 55.6393 96.4241 55.6393 95.171C55.6393 93.8675 54.6955 92.7864 53.454 92.5659C54.3706 90.1563 56.3607 87.4275 58.7974 84.2636C62.2669 79.7652 65.543 75.5164 63.5742 71.517C61.1413 66.5797 53.9374 68.4981 48.6771 69.9002C48.124 70.0472 47.598 70.1864 47.1029 70.3122C45.198 70.7956 43.8346 70.1265 41.1735 68.6954C38.1817 67.0863 34.455 65.0828 28.4346 64.9668C22.7392 64.8565 18.0069 67.038 16.0768 70.6564C14.8236 73.0023 14.9803 75.5957 16.5003 77.7733C17.2449 78.8408 18.5928 80.1888 20.3005 81.8926C23.0467 84.6349 27.3632 88.9553 29.1908 92.6472C28.1059 92.9759 27.3072 93.9777 27.3072 95.171C27.3072 96.4241 28.1794 97.4665 29.3436 97.745C27.2801 100.739 23.9363 104.224 20.3875 107.912C11.3019 117.353 0 129.104 0 142.953C0 160.923 18.1132 175 41.2412 175H41.8001C64.9241 175 83.0393 160.923 83.0393 142.953Z" fill="black"/>
<g id="Clip path group">
<mask id="mask0_109_2" style="mask-type:luminance" maskUnits="userSpaceOnUse" x="15" y="111" width="53" height="53">
<g id="3db828fba8">
<path id="Vector_16" d="M15.3209 111.167H67.7015V163.547H15.3209V111.167Z" fill="white"/>
</g>
</mask>
<g mask="url(#mask0_109_2)">
<g id="Group">
<g id="Clip path group_2">
<mask id="mask1_109_2" style="mask-type:luminance" maskUnits="userSpaceOnUse" x="15" y="111" width="53" height="53">
<g id="025989e485">
<path id="Vector_17" d="M41.5105 111.166C27.0466 111.166 15.3212 122.892 15.3212 137.356C15.3212 151.821 27.0466 163.547 41.5105 163.547C55.9763 163.547 67.7018 151.821 67.7018 137.356C67.7018 122.892 55.9763 111.166 41.5105 111.166Z" fill="white"/>
</g>
</mask>
<g mask="url(#mask1_109_2)">
<g id="Group_2">
<path id="Vector_18" d="M15.3212 111.166H67.7018V163.547H15.3212V111.166Z" fill="white"/>
</g>
</g>
</g>
</g>
</g>
</g>
<g id="Clip path group_3">
<mask id="mask2_109_2" style="mask-type:luminance" maskUnits="userSpaceOnUse" x="23" y="116" width="37" height="42">
<g id="e115a075cb">
<path id="Vector_19" d="M23.9627 116.342H59.5181V157.368H23.9627V116.342Z" fill="white"/>
</g>
</mask>
<g mask="url(#mask2_109_2)">
<g id="Group_3">
<path id="Vector_20" d="M59.4763 143.504C59.4763 140.563 57.7416 137.944 55.065 136.29C56.8597 134.681 57.9543 132.546 57.9543 130.208C57.9543 126.108 54.5873 122.639 49.9884 121.529V118.748C49.9884 117.419 48.6637 116.342 47.0315 116.342C45.3992 116.342 44.0764 117.419 44.0764 118.748V121.154H35.8185V118.748C35.8185 117.419 34.4957 116.342 32.8635 116.342C31.2312 116.342 29.9065 117.419 29.9065 118.748V121.154H26.9862C25.352 121.154 24.0292 122.231 24.0292 123.561C24.0292 124.89 25.352 125.967 26.9862 125.967H29.9413V147.745H26.9843C25.352 147.745 24.0292 148.822 24.0292 150.151C24.0292 151.48 25.352 152.557 26.9843 152.557H29.9065V154.963C29.9065 156.291 31.2293 157.368 32.8635 157.368C34.4957 157.368 35.8185 156.291 35.8185 154.963V152.557H44.0745V154.963C44.0745 156.291 45.3992 157.368 47.0315 157.368C48.6637 157.368 49.9884 156.291 49.9884 154.963V152.458C55.3493 151.812 59.4763 148.043 59.4763 143.504ZM35.8533 125.967H46.8303C49.7042 125.967 52.0423 127.868 52.0423 130.208C52.0423 132.546 49.7042 134.449 46.8303 134.449H35.8533V125.967ZM48.3523 147.745H47.0334H47.0315H47.0295H35.8533V139.261H48.3523C51.2262 139.261 53.5624 141.164 53.5624 143.502C53.5624 145.842 51.2262 147.745 48.3523 147.745Z" fill="black"/>
</g>
</g>
</g>
</g>
</g>
</svg>
