<svg width="40" height="35" viewBox="0 0 40 35" fill="none" xmlns="http://www.w3.org/2000/svg">
<path fill-rule="evenodd" clip-rule="evenodd" d="M11.1677 32.0423L16.282 33.3992V31.6248L16.6995 31.2073H19.6219V33.2947V34.7559H16.4907L12.6289 33.086L11.1677 32.0423Z" fill="#CDBDB2"/>
<path fill-rule="evenodd" clip-rule="evenodd" d="M27.8672 32.0423L22.8573 33.3992V31.6248L22.4398 31.2073H19.5174V33.2947V34.7559H22.6486L26.5103 33.086L27.8672 32.0423Z" fill="#CDBDB2"/>
<path fill-rule="evenodd" clip-rule="evenodd" d="M16.6995 28.1805L16.282 31.6247L16.8038 31.2072H22.2312L22.8574 31.6247L22.4399 28.1805L21.6049 27.6586L17.43 27.763L16.6995 28.1805Z" fill="#393939"/>
<path fill-rule="evenodd" clip-rule="evenodd" d="M13.8813 4.9054L16.3862 10.7502L17.5344 27.763H21.6048L22.8573 10.7502L25.1535 4.9054H13.8813Z" fill="#F89C35"/>
<path fill-rule="evenodd" clip-rule="evenodd" d="M2.92242 17.7433L0 26.1974L7.30605 25.7799H12.0027V22.127L11.794 14.6122L10.7502 15.4472L2.92242 17.7433Z" fill="#F89D35"/>
<path fill-rule="evenodd" clip-rule="evenodd" d="M8.45404 18.6825L17.0126 18.8912L16.0733 23.2749L12.0027 22.2311L8.45404 18.6825Z" fill="#D87C30"/>
<path fill-rule="evenodd" clip-rule="evenodd" d="M8.45404 18.7871L12.0027 22.127V25.4669L8.45404 18.7871Z" fill="#EA8D3A"/>
<path fill-rule="evenodd" clip-rule="evenodd" d="M12.0027 22.2312L16.1776 23.2749L17.5346 27.763L16.5951 28.2848L12.0027 25.5711V22.2312Z" fill="#F89D35"/>
<path fill-rule="evenodd" clip-rule="evenodd" d="M12.0026 25.5712L11.1677 32.0422L16.6995 28.1806L12.0026 25.5712Z" fill="#EB8F35"/>
<path fill-rule="evenodd" clip-rule="evenodd" d="M17.0125 18.8914L17.5345 27.7631L15.9688 23.2228L17.0125 18.8914Z" fill="#EA8E3A"/>
<path fill-rule="evenodd" clip-rule="evenodd" d="M7.20154 25.6756L12.0027 25.5712L11.1677 32.0422L7.20154 25.6756Z" fill="#D87C30"/>
<path fill-rule="evenodd" clip-rule="evenodd" d="M2.29619 34.8604L11.1677 32.0423L7.20158 25.6757L0 26.1974L2.29619 34.8604Z" fill="#EB8F35"/>
<path fill-rule="evenodd" clip-rule="evenodd" d="M16.3863 10.7504L11.8984 14.5078L8.45404 18.6826L17.0126 18.9959L16.3863 10.7504Z" fill="#E8821E"/>
<path fill-rule="evenodd" clip-rule="evenodd" d="M11.1677 32.0423L16.6995 28.1807L16.282 31.5206V33.3993L12.5246 32.6686L11.1677 32.0423Z" fill="#DFCEC3"/>
<path fill-rule="evenodd" clip-rule="evenodd" d="M27.8672 32.0423L22.4398 28.1807L22.8573 31.5206V33.3993L26.6147 32.6686L27.8672 32.0423Z" fill="#DFCEC3"/>
<path fill-rule="evenodd" clip-rule="evenodd" d="M14.7164 20.77L15.8646 23.1707L11.794 22.127L14.7164 20.77Z" fill="#393939"/>
<path fill-rule="evenodd" clip-rule="evenodd" d="M2.19171 0.00012207L16.3863 10.7504L13.9859 4.90552L2.19171 0.00012207Z" fill="#E88F35"/>
<path fill-rule="evenodd" clip-rule="evenodd" d="M2.19169 0L0.312988 5.74047L1.35671 12.0028L0.626105 12.4203L1.66983 13.3596L0.834849 14.0902L1.98294 15.134L1.25234 15.7602L2.92229 17.8476L10.7502 15.4471C14.5772 12.3855 16.4559 10.8199 16.3863 10.7503C16.3167 10.6807 11.5852 7.0973 2.19169 0Z" fill="#8E5A30"/>
<path fill-rule="evenodd" clip-rule="evenodd" d="M36.1126 17.7433L39.035 26.1974L31.7289 25.7799H27.0323V22.127L27.241 14.6122L28.2847 15.4472L36.1126 17.7433Z" fill="#F89D35"/>
<path fill-rule="evenodd" clip-rule="evenodd" d="M30.5809 18.6825L22.0224 18.8912L22.9617 23.2749L27.0323 22.2311L30.5809 18.6825Z" fill="#D87C30"/>
<path fill-rule="evenodd" clip-rule="evenodd" d="M30.5809 18.7871L27.0323 22.127V25.4669L30.5809 18.7871Z" fill="#EA8D3A"/>
<path fill-rule="evenodd" clip-rule="evenodd" d="M27.0323 22.2312L22.8574 23.2749L21.5005 27.763L22.4399 28.2848L27.0323 25.5711V22.2312Z" fill="#F89D35"/>
<path fill-rule="evenodd" clip-rule="evenodd" d="M27.0322 25.5712L27.8672 32.0422L22.4398 28.2848L27.0322 25.5712Z" fill="#EB8F35"/>
<path fill-rule="evenodd" clip-rule="evenodd" d="M22.0224 18.8914L21.5004 27.7631L23.0661 23.2228L22.0224 18.8914Z" fill="#EA8E3A"/>
<path fill-rule="evenodd" clip-rule="evenodd" d="M31.8333 25.6756L27.0322 25.5712L27.8672 32.0422L31.8333 25.6756Z" fill="#D87C30"/>
<path fill-rule="evenodd" clip-rule="evenodd" d="M36.7388 34.8604L27.8673 32.0423L31.8334 25.6757L39.035 26.1974L36.7388 34.8604Z" fill="#EB8F35"/>
<path fill-rule="evenodd" clip-rule="evenodd" d="M22.6487 10.7504L27.1366 14.5078L30.5809 18.6826L22.0224 18.9959L22.6487 10.7504Z" fill="#E8821E"/>
<path fill-rule="evenodd" clip-rule="evenodd" d="M24.3185 20.77L23.1703 23.1707L27.241 22.127L24.3185 20.77Z" fill="#393939"/>
<path fill-rule="evenodd" clip-rule="evenodd" d="M36.8432 0.00012207L22.6486 10.7504L25.0491 4.90552L36.8432 0.00012207Z" fill="#E88F35"/>
<path fill-rule="evenodd" clip-rule="evenodd" d="M36.8433 0L38.722 5.74047L37.6783 12.0028L38.4089 12.4203L37.3651 13.3596L38.2001 14.0902L37.052 15.134L37.7826 15.7602L36.1127 17.8476L28.2848 15.4471C24.4578 12.3855 22.5791 10.8199 22.6487 10.7503C22.7183 10.6807 27.4498 7.0973 36.8433 0Z" fill="#8E5A30"/>
</svg>
