<svg width="16" height="16" viewBox="0 0 16 16" fill="none" xmlns="http://www.w3.org/2000/svg">
<rect x="0.5" y="0.5" width="15" height="15" rx="3.5" fill="#0F172A" stroke="black"/>
<path d="M10.9612 5.38082C11.0735 5.26765 11.2254 5.20268 11.3848 5.19969C11.5442 5.19671 11.6985 5.25594 11.8149 5.36482C11.9187 5.46181 11.9836 5.59337 11.9973 5.7348C12.011 5.87622 11.9726 6.01778 11.8893 6.1329L11.8317 6.20091L7.49924 10.6182C7.39479 10.7236 7.25564 10.7876 7.10761 10.7981C6.95959 10.8087 6.81275 10.7653 6.69435 10.6758L6.62554 10.615L4.16528 8.07391C4.11095 8.01802 4.06835 7.95182 4.04 7.87921C4.01165 7.80661 3.99812 7.72906 4.00021 7.65114C4.0023 7.57322 4.01996 7.49651 4.05216 7.42553C4.08435 7.35454 4.13043 7.29072 4.18768 7.23782C4.29349 7.13964 4.43055 7.08195 4.57472 7.07493C4.71889 7.0679 4.86092 7.11199 4.97577 7.19942L5.04217 7.25862L7.06799 9.34925L10.9604 5.38082H10.9612Z" fill="white"/>
</svg>
