<svg width="12" height="12" viewBox="0 0 12 12" fill="none" xmlns="http://www.w3.org/2000/svg">
<path d="M7.75 1H4.3C4.1 1 3.9 1.1 3.75 1.25C3.6 1.4 3.5 1.6 3.5 1.8V8.2C3.5 8.4 3.6 8.6 3.75 8.75C3.9 8.9 4.1 9 4.3 9H9.2C9.4 9 9.6 8.9 9.75 8.75C9.9 8.6 10 8.4 10 8.2V3.25L7.75 1Z" stroke="#475569" stroke-width="1.33" stroke-linecap="round" stroke-linejoin="round"/>
<path d="M1.5 3.7998V10.1998C1.5 10.3998 1.6 10.5998 1.75 10.7498C1.9 10.8998 2.1 10.9998 2.3 10.9998H7.2" stroke="#475569" stroke-width="1.33333" stroke-linecap="round" stroke-linejoin="round"/>
<path d="M7.5 1V3.5H10" stroke="#475569" stroke-width="1.33333" stroke-linecap="round" stroke-linejoin="round"/>
</svg>
