<svg width="16" height="16" viewBox="0 0 16 16" fill="none" xmlns="http://www.w3.org/2000/svg">
<path d="M10.3333 1.3335H5.73329C5.46663 1.3335 5.19996 1.46683 4.99996 1.66683C4.79996 1.86683 4.66663 2.1335 4.66663 2.40016V10.9335C4.66663 11.2002 4.79996 11.4668 4.99996 11.6668C5.19996 11.8668 5.46663 12.0002 5.73329 12.0002H12.2666C12.5333 12.0002 12.8 11.8668 13 11.6668C13.2 11.4668 13.3333 11.2002 13.3333 10.9335V4.3335L10.3333 1.3335Z" stroke="#475569" stroke-width="1.33" stroke-linecap="round" stroke-linejoin="round"/>
<path d="M2 5.06689V13.6002C2 13.8669 2.13333 14.1336 2.33333 14.3336C2.53333 14.5336 2.8 14.6669 3.06667 14.6669H9.6" stroke="#475569" stroke-width="1.33333" stroke-linecap="round" stroke-linejoin="round"/>
<path d="M10 1.3335V4.66683H13.3333" stroke="#475569" stroke-width="1.33333" stroke-linecap="round" stroke-linejoin="round"/>
</svg>
