<svg width="15" height="15" viewBox="0 0 15 15" fill="none" xmlns="http://www.w3.org/2000/svg">
<path d="M7.49961 15.0005C6.12994 15.0003 4.78648 14.6251 3.61495 13.9155C2.44342 13.2059 1.48853 12.1891 0.85387 10.9754C0.219206 9.76161 -0.0710086 8.39725 0.0147041 7.03027C0.100417 5.66329 0.558785 4.34587 1.34009 3.2209C1.40905 3.12191 1.5145 3.05437 1.63325 3.03313C1.75201 3.01189 1.87434 3.0387 1.97333 3.10766C2.07231 3.17661 2.13986 3.28206 2.16109 3.40082C2.18233 3.51957 2.15553 3.6419 2.08657 3.74089C1.15348 5.08454 0.753649 6.72728 0.964869 8.34945C1.17609 9.97162 1.98325 11.4572 3.22931 12.5171C4.47536 13.577 6.07116 14.1354 7.70621 14.0837C9.34126 14.032 10.8986 13.3739 12.0752 12.2374C13.2518 11.1008 13.9635 9.56723 14.0718 7.93495C14.1801 6.30267 13.6772 4.68849 12.6611 3.40648C11.645 2.12447 10.1882 1.26634 8.57437 0.999067C6.96048 0.731796 5.30489 1.0745 3.92973 1.9605C3.82832 2.02587 3.70511 2.04829 3.58718 2.02282C3.46925 1.99734 3.36627 1.92606 3.30089 1.82466C3.23551 1.72326 3.2131 1.60004 3.23857 1.48211C3.26404 1.36418 3.33532 1.2612 3.43672 1.19582C4.41676 0.564222 5.53056 0.169799 6.68967 0.0438742C7.84878 -0.0820508 9.02129 0.0639893 10.1141 0.4704C11.2069 0.87681 12.1899 1.5324 12.9851 2.38511C13.7802 3.23782 14.3657 4.26417 14.6949 5.38267C15.024 6.50116 15.0879 7.681 14.8815 8.82851C14.675 9.97601 14.2038 11.0596 13.5054 11.9932C12.807 12.9268 11.9005 13.6847 10.858 14.2067C9.81543 14.7288 8.66554 15.0006 7.49961 15.0005Z" fill="#37E288"/>
<path d="M2.7145 2.78458C2.62308 2.7846 2.53378 2.75706 2.45824 2.70556C2.38271 2.65406 2.32445 2.58099 2.29106 2.49588C2.25767 2.41078 2.25071 2.31758 2.27107 2.22846C2.29144 2.13933 2.3382 2.05842 2.40524 1.99626L2.48923 1.91986C2.53344 1.87874 2.5854 1.84684 2.64207 1.82601C2.69874 1.80518 2.75899 1.79585 2.81931 1.79855C2.87963 1.80125 2.9388 1.81594 2.99338 1.84175C3.04796 1.86756 3.09686 1.90399 3.13722 1.94889C3.17758 1.9938 3.20859 2.04629 3.22845 2.10331C3.24831 2.16033 3.25661 2.22073 3.25288 2.281C3.24915 2.34126 3.23346 2.40017 3.20672 2.45431C3.17998 2.50844 3.14273 2.55671 3.09714 2.5963L3.02347 2.66361C2.93939 2.7414 2.82905 2.78461 2.7145 2.78458Z" fill="#37E288"/>
<path d="M6.81888 11.4119C6.70689 11.4116 6.59893 11.37 6.51568 11.2951L3.41303 8.50355C3.36812 8.46311 3.33172 8.41412 3.30596 8.35945C3.2802 8.30477 3.26559 8.24551 3.26299 8.18513C3.2604 8.12475 3.26986 8.06446 3.29083 8.00777C3.3118 7.95109 3.34386 7.89916 3.38514 7.85501L4.54367 6.61461C4.62416 6.52833 4.73504 6.47671 4.85289 6.47066C4.97073 6.4646 5.08632 6.50459 5.17523 6.58217L6.54358 7.77587L9.60439 4.34728C9.64849 4.29945 9.70203 4.26128 9.76162 4.23518C9.82122 4.20909 9.88558 4.19564 9.95064 4.19568C10.0158 4.19662 10.08 4.21157 10.139 4.2395C10.1979 4.26744 10.2501 4.30771 10.292 4.35759L11.3763 5.6471C11.4451 5.72902 11.4828 5.83257 11.4828 5.93954C11.4828 6.0465 11.4451 6.15005 11.3763 6.23197L7.16605 11.2493C7.12677 11.2961 7.07848 11.3345 7.02404 11.3622C6.9696 11.3899 6.91014 11.4064 6.8492 11.4106C6.8398 11.4119 6.82949 11.4119 6.81888 11.4119ZM4.36599 8.13729L6.77189 10.304L10.4342 5.94029L9.93336 5.34511L6.92349 8.71701C6.84373 8.80638 6.73194 8.86069 6.61238 8.86812C6.49283 8.87556 6.37516 8.83553 6.28495 8.75673L4.90902 7.55666L4.36599 8.13729Z" fill="#37E288"/>
</svg>
