<svg width="30" height="30" viewBox="0 0 30 30" fill="none" xmlns="http://www.w3.org/2000/svg">
<path d="M0 3V21.75H24.375V3H0ZM1.875 4.875H22.5V19.875H19.3066C19.2334 19.7468 19.2664 19.571 19.1602 19.4648C18.8049 19.1096 18.3032 18.9375 17.8125 18.9375C17.3218 18.9375 16.8201 19.1096 16.4648 19.4648C16.3586 19.571 16.3916 19.7468 16.3184 19.875H8.05664C7.9834 19.7468 8.01636 19.571 7.91016 19.4648C7.55493 19.1096 7.05322 18.9375 6.5625 18.9375C6.07178 18.9375 5.57007 19.1096 5.21484 19.4648C5.10864 19.571 5.1416 19.7468 5.06836 19.875H1.875V4.875ZM8.4375 6.75C6.37573 6.75 4.6875 8.43823 4.6875 10.5C4.6875 11.5437 5.13428 12.4849 5.83008 13.166C4.5813 14.012 3.75 15.4548 3.75 17.0625H5.625C5.625 15.5098 6.88477 14.25 8.4375 14.25C9.99023 14.25 11.25 15.5098 11.25 17.0625H13.125C13.125 15.4548 12.2937 14.012 11.0449 13.166C11.7407 12.4849 12.1875 11.5437 12.1875 10.5C12.1875 8.43823 10.4993 6.75 8.4375 6.75ZM8.4375 8.625C9.48486 8.625 10.3125 9.45264 10.3125 10.5C10.3125 11.5474 9.48486 12.375 8.4375 12.375C7.39014 12.375 6.5625 11.5474 6.5625 10.5C6.5625 9.45264 7.39014 8.625 8.4375 8.625ZM15 9.5625V11.4375H20.625V9.5625H15ZM15 13.3125V15.1875H20.625V13.3125H15Z" fill="black"/>
</svg>
