<svg width="25" height="19" viewBox="0 0 25 19" fill="none" xmlns="http://www.w3.org/2000/svg">
<path d="M0 0V18.75H24.375V0H0ZM1.875 1.875H22.5V16.875H19.3066C19.2334 16.7468 19.2664 16.571 19.1602 16.4648C18.8049 16.1096 18.3032 15.9375 17.8125 15.9375C17.3218 15.9375 16.8201 16.1096 16.4648 16.4648C16.3586 16.571 16.3916 16.7468 16.3184 16.875H8.05664C7.9834 16.7468 8.01636 16.571 7.91016 16.4648C7.55493 16.1096 7.05322 15.9375 6.5625 15.9375C6.07178 15.9375 5.57007 16.1096 5.21484 16.4648C5.10864 16.571 5.1416 16.7468 5.06836 16.875H1.875V1.875ZM8.4375 3.75C6.37573 3.75 4.6875 5.43823 4.6875 7.5C4.6875 8.5437 5.13428 9.48486 5.83008 10.166C4.5813 11.012 3.75 12.4548 3.75 14.0625H5.625C5.625 12.5098 6.88477 11.25 8.4375 11.25C9.99023 11.25 11.25 12.5098 11.25 14.0625H13.125C13.125 12.4548 12.2937 11.012 11.0449 10.166C11.7407 9.48486 12.1875 8.5437 12.1875 7.5C12.1875 5.43823 10.4993 3.75 8.4375 3.75ZM8.4375 5.625C9.48486 5.625 10.3125 6.45264 10.3125 7.5C10.3125 8.54736 9.48486 9.375 8.4375 9.375C7.39014 9.375 6.5625 8.54736 6.5625 7.5C6.5625 6.45264 7.39014 5.625 8.4375 5.625ZM15 6.5625V8.4375H20.625V6.5625H15ZM15 10.3125V12.1875H20.625V10.3125H15Z" fill="black"/>
</svg>
