<svg width="15" height="13" viewBox="0 0 15 13" fill="none" xmlns="http://www.w3.org/2000/svg">
<path d="M2.55167 6.08594L6.72152 1.29125C6.96952 0.996046 6.96952 0.527941 6.72152 0.232644C6.4673 -0.0700003 6.04782 -0.0783709 5.78461 0.21395L1.14627 5.54734C1.14618 5.54734 1.14627 5.54725 1.14627 5.54734C0.887591 5.84478 0.88751 6.3273 1.14627 6.62464L5.78461 11.958C5.90869 12.1012 6.07734 12.1815 6.25311 12.1812C6.42879 12.1812 6.59728 12.101 6.72144 11.9581C6.98028 11.6606 6.98028 11.1782 6.7216 10.8806L2.55167 6.08594ZM14.6731 10.8806L10.5031 6.08594L14.673 1.29125C14.9211 0.995953 14.9211 0.527848 14.673 0.232644C14.4187 -0.0700932 13.9993 -0.0784639 13.7361 0.21395L9.09772 5.54734C9.09764 5.54734 9.09772 5.54725 9.09772 5.54734C8.83905 5.84478 8.83896 6.3273 9.09772 6.62464L13.7361 11.958C13.8601 12.1012 14.0288 12.1815 14.2046 12.1812C14.3802 12.1812 14.5487 12.101 14.6729 11.9581C14.9317 11.6606 14.9317 11.1782 14.6731 10.8806Z" fill="#7C7777"/>
</svg>
