<svg width="17" height="20" viewBox="0 0 17 20" fill="none" xmlns="http://www.w3.org/2000/svg">
<path d="M16.0658 0H3.90789C3.79283 0 3.68211 0.038889 3.60091 0.108519L0.127224 3.07148C0.0455922 3.14074 0 3.23519 0 3.33333V19.6296C0 19.8344 0.194526 20 0.434211 20H16.0658C16.3059 20 16.5 19.8344 16.5 19.6296V0.37037C16.5 0.165926 16.3059 0 16.0658 0ZM3.47368 1.26444V2.96296H1.48239L3.47368 1.26444ZM15.6316 19.2593H0.868421V3.7037H3.90789C4.14758 3.7037 4.34211 3.53778 4.34211 3.33333V0.740741H15.6316V19.2593Z" fill="#7C7777"/>
<path d="M6.51336 2.96266H13.4607C13.7009 2.96266 13.8949 2.79674 13.8949 2.59229C13.8949 2.38785 13.7009 2.22192 13.4607 2.22192H6.51336C6.27368 2.22192 6.07915 2.38785 6.07915 2.59229C6.07915 2.79674 6.27368 2.96266 6.51336 2.96266ZM3.03968 7.40711H9.11863C9.35875 7.40711 9.55284 7.24118 9.55284 7.03674C9.55284 6.83229 9.35875 6.66637 9.11863 6.66637H3.03968C2.8 6.66637 2.60547 6.83229 2.60547 7.03674C2.60547 7.24118 2.8 7.40711 3.03968 7.40711ZM13.4607 6.66637H11.7239C11.4838 6.66637 11.2897 6.83229 11.2897 7.03674C11.2897 7.24118 11.4838 7.40711 11.7239 7.40711H13.4607C13.7009 7.40711 13.8949 7.24118 13.8949 7.03674C13.8949 6.83229 13.7009 6.66637 13.4607 6.66637ZM3.03968 8.88859H9.11863C9.35875 8.88859 9.55284 8.72266 9.55284 8.51822C9.55284 8.31377 9.35875 8.14785 9.11863 8.14785H3.03968C2.8 8.14785 2.60547 8.31377 2.60547 8.51822C2.60547 8.72266 2.8 8.88859 3.03968 8.88859ZM13.4607 8.14785H11.7239C11.4838 8.14785 11.2897 8.31377 11.2897 8.51822C11.2897 8.72266 11.4838 8.88859 11.7239 8.88859H13.4607C13.7009 8.88859 13.8949 8.72266 13.8949 8.51822C13.8949 8.31377 13.7009 8.14785 13.4607 8.14785ZM3.03968 10.3701H9.11863C9.35875 10.3701 9.55284 10.2041 9.55284 9.9997C9.55284 9.79525 9.35875 9.62933 9.11863 9.62933H3.03968C2.8 9.62933 2.60547 9.79525 2.60547 9.9997C2.60547 10.2041 2.8 10.3701 3.03968 10.3701ZM13.4607 9.62933H11.7239C11.4838 9.62933 11.2897 9.79525 11.2897 9.9997C11.2897 10.2041 11.4838 10.3701 11.7239 10.3701H13.4607C13.7009 10.3701 13.8949 10.2041 13.8949 9.9997C13.8949 9.79525 13.7009 9.62933 13.4607 9.62933ZM3.03968 11.8515H9.11863C9.35875 11.8515 9.55284 11.686 9.55284 11.4812C9.55284 11.2764 9.35875 11.1108 9.11863 11.1108H3.03968C2.8 11.1108 2.60547 11.2764 2.60547 11.4812C2.60547 11.686 2.8 11.8515 3.03968 11.8515ZM13.4607 11.1108H11.7239C11.4838 11.1108 11.2897 11.2764 11.2897 11.4812C11.2897 11.686 11.4838 11.8515 11.7239 11.8515H13.4607C13.7009 11.8515 13.8949 11.686 13.8949 11.4812C13.8949 11.2764 13.7009 11.1108 13.4607 11.1108ZM13.4607 13.333H3.03968C2.8 13.333 2.60547 13.4986 2.60547 13.7034C2.60547 13.9082 2.8 14.0738 3.03968 14.0738H13.4607C13.7009 14.0738 13.8949 13.9082 13.8949 13.7034C13.8949 13.4986 13.7009 13.333 13.4607 13.333ZM9.11863 15.5553H3.03968C2.8 15.5553 2.60547 15.7208 2.60547 15.9256C2.60547 16.1304 2.8 16.296 3.03968 16.296H9.11863C9.35875 16.296 9.55284 16.1304 9.55284 15.9256C9.55284 15.7208 9.35875 15.5553 9.11863 15.5553ZM13.4607 15.5553H11.7239C11.4838 15.5553 11.2897 15.7208 11.2897 15.9256C11.2897 16.1304 11.4838 16.296 11.7239 16.296H13.4607C13.7009 16.296 13.8949 16.1304 13.8949 15.9256C13.8949 15.7208 13.7009 15.5553 13.4607 15.5553Z" fill="#7C7777"/>
</svg>
