<svg width="23" height="23" viewBox="0 0 23 23" fill="none" xmlns="http://www.w3.org/2000/svg">
<path d="M1.65625 14.3501C1.8303 14.3501 1.99722 14.4291 2.12029 14.5698C2.24336 14.7104 2.3125 14.9012 2.3125 15.1001V18.8501C2.3125 19.2479 2.45078 19.6295 2.69692 19.9108C2.94306 20.1921 3.2769 20.3501 3.625 20.3501H19.375C19.7231 20.3501 20.0569 20.1921 20.3031 19.9108C20.5492 19.6295 20.6875 19.2479 20.6875 18.8501V15.1001C20.6875 14.9012 20.7566 14.7104 20.8797 14.5698C21.0028 14.4291 21.1697 14.3501 21.3438 14.3501C21.5178 14.3501 21.6847 14.4291 21.8078 14.5698C21.9309 14.7104 22 14.9012 22 15.1001V18.8501C22 19.6457 21.7234 20.4088 21.2312 20.9714C20.7389 21.534 20.0712 21.8501 19.375 21.8501H3.625C2.92881 21.8501 2.26113 21.534 1.76884 20.9714C1.27656 20.4088 1 19.6457 1 18.8501V15.1001C1 14.9012 1.06914 14.7104 1.19221 14.5698C1.31528 14.4291 1.4822 14.3501 1.65625 14.3501Z" fill="#7C7777" stroke="#7C7777" stroke-width="0.5"/>
<path d="M11.0352 17.281C11.0962 17.3508 11.1686 17.4063 11.2483 17.4441C11.3281 17.4819 11.4135 17.5013 11.4999 17.5013C11.5862 17.5013 11.6716 17.4819 11.7514 17.4441C11.8311 17.4063 11.9035 17.3508 11.9645 17.281L15.902 12.781C16.0252 12.6402 16.0944 12.4492 16.0944 12.25C16.0944 12.0508 16.0252 11.8598 15.902 11.719C15.7788 11.5782 15.6116 11.4991 15.4374 11.4991C15.2631 11.4991 15.096 11.5782 14.9727 11.719L12.1561 14.9395V1.75C12.1561 1.55109 12.087 1.36032 11.9639 1.21967C11.8408 1.07902 11.6739 1 11.4999 1C11.3258 1 11.1589 1.07902 11.0358 1.21967C10.9127 1.36032 10.8436 1.55109 10.8436 1.75V14.9395L8.02698 11.719C7.90375 11.5782 7.73662 11.4991 7.56235 11.4991C7.38808 11.4991 7.22095 11.5782 7.09773 11.719C6.9745 11.8598 6.90527 12.0508 6.90527 12.25C6.90527 12.4492 6.9745 12.6402 7.09773 12.781L11.0352 17.281Z" fill="#7C7777" stroke="#7C7777" stroke-width="0.5"/>
</svg>
