<svg width="17" height="17" viewBox="0 0 17 17" fill="none" xmlns="http://www.w3.org/2000/svg">
<path d="M7.425 5.775H10.725C10.9438 5.775 11.1536 5.68808 11.3084 5.53336C11.4631 5.37865 11.55 5.1688 11.55 4.95C11.55 4.7312 11.4631 4.52135 11.3084 4.36664C11.1536 4.21192 10.9438 4.125 10.725 4.125H9.075V3.3C9.075 3.0812 8.98808 2.87135 8.83336 2.71664C8.67865 2.56192 8.4688 2.475 8.25 2.475C8.0312 2.475 7.82135 2.56192 7.66664 2.71664C7.51192 2.87135 7.425 3.0812 7.425 3.3V4.125C6.76859 4.125 6.13906 4.38576 5.67491 4.84991C5.21076 5.31406 4.95 5.94359 4.95 6.6C4.95 7.25641 5.21076 7.88594 5.67491 8.35009C6.13906 8.81424 6.76859 9.075 7.425 9.075H9.075C9.2938 9.075 9.50364 9.16192 9.65836 9.31664C9.81308 9.47135 9.9 9.6812 9.9 9.9C9.9 10.1188 9.81308 10.3286 9.65836 10.4834C9.50364 10.6381 9.2938 10.725 9.075 10.725H5.775C5.5562 10.725 5.34635 10.8119 5.19164 10.9666C5.03692 11.1214 4.95 11.3312 4.95 11.55C4.95 11.7688 5.03692 11.9786 5.19164 12.1334C5.34635 12.2881 5.5562 12.375 5.775 12.375H7.425V13.2C7.425 13.4188 7.51192 13.6286 7.66664 13.7834C7.82135 13.9381 8.0312 14.025 8.25 14.025C8.4688 14.025 8.67865 13.9381 8.83336 13.7834C8.98808 13.6286 9.075 13.4188 9.075 13.2V12.375C9.73141 12.375 10.3609 12.1142 10.8251 11.6501C11.2892 11.1859 11.55 10.5564 11.55 9.9C11.55 9.24359 11.2892 8.61406 10.8251 8.14991C10.3609 7.68576 9.73141 7.425 9.075 7.425H7.425C7.2062 7.425 6.99635 7.33808 6.84164 7.18336C6.68692 7.02865 6.6 6.8188 6.6 6.6C6.6 6.3812 6.68692 6.17135 6.84164 6.01664C6.99635 5.86192 7.2062 5.775 7.425 5.775ZM14.025 0H2.475C1.81859 0 1.18906 0.260758 0.724911 0.724911C0.260758 1.18906 0 1.81859 0 2.475V14.025C0 14.6814 0.260758 15.3109 0.724911 15.7751C1.18906 16.2392 1.81859 16.5 2.475 16.5H14.025C14.6814 16.5 15.3109 16.2392 15.7751 15.7751C16.2392 15.3109 16.5 14.6814 16.5 14.025V2.475C16.5 1.81859 16.2392 1.18906 15.7751 0.724911C15.3109 0.260758 14.6814 0 14.025 0ZM14.85 14.025C14.85 14.2438 14.7631 14.4536 14.6084 14.6084C14.4536 14.7631 14.2438 14.85 14.025 14.85H2.475C2.2562 14.85 2.04635 14.7631 1.89164 14.6084C1.73692 14.4536 1.65 14.2438 1.65 14.025V2.475C1.65 2.2562 1.73692 2.04635 1.89164 1.89164C2.04635 1.73692 2.2562 1.65 2.475 1.65H14.025C14.2438 1.65 14.4536 1.73692 14.6084 1.89164C14.7631 2.04635 14.85 2.2562 14.85 2.475V14.025Z" fill="#7C7777"/>
</svg>
