<svg width="22" height="23" viewBox="0 0 22 23" fill="none" xmlns="http://www.w3.org/2000/svg">
<path d="M17.6014 13.2313C16.9517 13.2356 16.3111 13.3837 15.7254 13.6651C15.1398 13.9465 14.6238 14.3542 14.2145 14.8587L8.60635 12.2746C8.87003 11.4672 8.87003 10.5968 8.60635 9.78939L14.2145 7.20523C14.8761 8.00354 15.7984 8.54248 16.8186 8.72696C17.8389 8.91144 18.8915 8.72959 19.7908 8.2135C20.69 7.69741 21.378 6.88026 21.7334 5.90627C22.0888 4.93228 22.0887 3.86406 21.7331 2.89013C21.3776 1.91621 20.6894 1.09919 19.7901 0.583261C18.8907 0.0673359 17.8381 -0.114325 16.8179 0.0703383C15.7976 0.255002 14.8754 0.794118 14.214 1.59254C13.5526 2.39096 13.1945 3.39737 13.2029 4.43413C13.2062 4.6961 13.2319 4.95731 13.2798 5.21488L7.47372 7.88701C6.85471 7.28174 6.07084 6.87261 5.22034 6.71086C4.36983 6.54912 3.4905 6.64196 2.69253 6.97775C1.89455 7.31354 1.21341 7.87736 0.734449 8.59855C0.255486 9.31974 0 10.1662 0 11.032C0 11.8977 0.255486 12.7442 0.734449 13.4654C1.21341 14.1866 1.89455 14.7504 2.69253 15.0862C3.4905 15.422 4.36983 15.5149 5.22034 15.3531C6.07084 15.1914 6.85471 14.7822 7.47372 14.177L13.2798 16.8491C13.2319 17.1067 13.2062 17.3679 13.2029 17.6298C13.2029 18.4998 13.4608 19.3502 13.9441 20.0736C14.4275 20.7969 15.1144 21.3607 15.9182 21.6936C16.7219 22.0265 17.6063 22.1136 18.4595 21.9439C19.3128 21.7742 20.0965 21.3553 20.7117 20.7401C21.3268 20.125 21.7458 19.3412 21.9155 18.488C22.0852 17.6347 21.9981 16.7503 21.6652 15.9466C21.3323 15.1429 20.7685 14.4559 20.0451 13.9726C19.3218 13.4892 18.4714 13.2313 17.6014 13.2313ZM17.6014 2.23485C18.0364 2.23485 18.4616 2.36383 18.8233 2.6055C19.185 2.84716 19.4668 3.19064 19.6333 3.5925C19.7998 3.99437 19.8433 4.43657 19.7585 4.86319C19.6736 5.28981 19.4641 5.68169 19.1566 5.98926C18.849 6.29684 18.4571 6.5063 18.0305 6.59116C17.6039 6.67602 17.1617 6.63247 16.7598 6.46601C16.3579 6.29955 16.0145 6.01766 15.7728 5.65599C15.5311 5.29432 15.4021 4.86911 15.4021 4.43413C15.4021 3.85085 15.6339 3.29145 16.0463 2.879C16.4587 2.46656 17.0181 2.23485 17.6014 2.23485ZM4.40572 13.2313C3.97074 13.2313 3.54553 13.1023 3.18386 12.8606C2.82219 12.619 2.5403 12.2755 2.37384 11.8736C2.20738 11.4718 2.16383 11.0295 2.24869 10.6029C2.33355 10.1763 2.54301 9.78444 2.85059 9.47686C3.15816 9.16928 3.55004 8.95982 3.97666 8.87496C4.40328 8.7901 4.84548 8.83366 5.24735 9.00011C5.64921 9.16657 5.99269 9.44846 6.23435 9.81013C6.47601 10.1718 6.605 10.597 6.605 11.032C6.605 11.6153 6.37329 12.1747 5.96085 12.5871C5.5484 12.9996 4.989 13.2313 4.40572 13.2313ZM17.6014 19.8291C17.1665 19.8291 16.7412 19.7001 16.3796 19.4585C16.0179 19.2168 15.736 18.8733 15.5696 18.4715C15.4031 18.0696 15.3595 17.6274 15.4444 17.2008C15.5293 16.7742 15.7387 16.3823 16.0463 16.0747C16.3539 15.7671 16.7457 15.5577 17.1724 15.4728C17.599 15.388 18.0412 15.4315 18.4431 15.598C18.8449 15.7644 19.1884 16.0463 19.4301 16.408C19.6717 16.7697 19.8007 17.1949 19.8007 17.6298C19.8007 18.2131 19.569 18.7725 19.1566 19.185C18.7441 19.5974 18.1847 19.8291 17.6014 19.8291Z" fill="black"/>
</svg>
