<svg width="20" height="20" viewBox="0 0 20 20" fill="none" xmlns="http://www.w3.org/2000/svg">
<path d="M14.4152 12.1429H5.58482C5.10714 12.1429 4.86607 11.5625 5.20536 11.2277L9.62054 6.83929C9.83036 6.62946 10.1652 6.62946 10.375 6.83929L14.7902 11.2277C15.1339 11.5625 14.8929 12.1429 14.4152 12.1429ZM20 2.14286V17.8571C20 19.0402 19.0402 20 17.8571 20H2.14286C0.959821 20 0 19.0402 0 17.8571V2.14286C0 0.959821 0.959821 0 2.14286 0H17.8571C19.0402 0 20 0.959821 20 2.14286ZM17.8571 17.5893V2.41071C17.8571 2.26339 17.7366 2.14286 17.5893 2.14286H2.41071C2.26339 2.14286 2.14286 2.26339 2.14286 2.41071V17.5893C2.14286 17.7366 2.26339 17.8571 2.41071 17.8571H17.5893C17.7366 17.8571 17.8571 17.7366 17.8571 17.5893Z" fill="#7C7777"/>
</svg>
