<svg width="30" height="22" viewBox="0 0 30 22" fill="none" xmlns="http://www.w3.org/2000/svg">
<path d="M29.2218 10.4891C26.8189 5.269 21.3886 0 14.6664 0C7.94414 0 2.51381 5.269 0.110922 10.4891C0.0378254 10.6495 0 10.8237 0 11C0 11.1763 0.0378254 11.3505 0.110922 11.5109C2.51381 16.731 7.94414 22 14.6664 22C21.3886 22 26.8189 16.731 29.2218 11.5109C29.2949 11.3505 29.3327 11.1763 29.3327 11C29.3327 10.8237 29.2949 10.6495 29.2218 10.4891ZM14.6664 19.5556C9.27514 19.5556 4.71014 15.2142 2.57859 11C4.71014 6.78578 9.27514 2.44444 14.6664 2.44444C20.0576 2.44444 24.6226 6.78578 26.7541 11C24.6226 15.2142 20.0576 19.5556 14.6664 19.5556Z" fill="#7C7777"/>
<path d="M14.6664 4.88867C13.4577 4.88867 12.2762 5.24708 11.2713 5.91858C10.2663 6.59008 9.48302 7.5445 9.02048 8.66116C8.55795 9.77782 8.43693 11.0066 8.67272 12.192C8.90852 13.3774 9.49055 14.4663 10.3452 15.321C11.1999 16.1756 12.2888 16.7577 13.4742 16.9935C14.6596 17.2293 15.8884 17.1082 17.005 16.6457C18.1217 16.1832 19.0761 15.3999 19.7476 14.3949C20.4191 13.39 20.7775 12.2084 20.7775 10.9998C20.7756 9.37961 20.1311 7.82635 18.9855 6.68072C17.8398 5.53508 16.2866 4.89061 14.6664 4.88867ZM14.6664 14.6664C13.9412 14.6664 13.2323 14.4514 12.6293 14.0485C12.0263 13.6456 11.5564 13.073 11.2789 12.403C11.0013 11.733 10.9287 10.9957 11.0702 10.2845C11.2117 9.57319 11.5609 8.91985 12.0737 8.40706C12.5865 7.89427 13.2398 7.54505 13.9511 7.40357C14.6623 7.26209 15.3996 7.3347 16.0696 7.61222C16.7396 7.88975 17.3122 8.35971 17.7151 8.96269C18.118 9.56567 18.3331 10.2746 18.3331 10.9998C18.3331 11.9722 17.9468 12.9049 17.2591 13.5925C16.5715 14.2801 15.6389 14.6664 14.6664 14.6664Z" fill="#7C7777"/>
</svg>
